<svg xmlns="http://www.w3.org/2000/svg" height="1024" preserveAspectRatio="none" style="display: block;" version="1.1" viewBox="0 0 2048 2048" width="1024">
<defs>
	<linearGradient gradientUnits="userSpaceOnUse" id="Gradient1" x1="855.796" x2="920.497" y1="1235.64" y2="1429.25">
		<stop class="stop0" offset="0" stop-color="rgb(233,233,224)" stop-opacity="0.933333"></stop>
		<stop class="stop1" offset="1" stop-color="rgb(234,232,225)" stop-opacity="1"></stop>
	</linearGradient>
	<linearGradient gradientUnits="userSpaceOnUse" id="Gradient2" x1="1068.76" x2="1099.4" y1="775.087" y2="800.537">
		<stop class="stop0" offset="0" stop-color="rgb(255,255,255)" stop-opacity="0.780392"></stop>
		<stop class="stop1" offset="1" stop-color="rgb(255,255,255)" stop-opacity="0.85098"></stop>
	</linearGradient>
</defs>
<path d="M 1252.57 407.516 C 1268.25 374.432 1244.01 341.339 1260.55 315.898 C 1265.8 308.781 1276.8 302.217 1285.65 301.923 C 1340.73 300.093 1372.49 364.346 1376.33 410.228 C 1381.24 468.784 1362.12 509.27 1326.64 552.072 C 1448.71 683.459 1473.94 894.758 1335.4 1025.33 C 1326.44 1033.75 1317.07 1041.73 1307.33 1049.24 C 1302.31 1053.07 1281.55 1066.56 1279.48 1069.32 C 1287.6 1075.67 1313.55 1065.68 1322.1 1061.81 C 1360.32 1044.54 1390.75 1013.67 1407.47 975.211 C 1411.58 965.82 1415.27 954.528 1418.91 944.812 C 1433.67 905.365 1476.37 884.007 1516.93 893.812 C 1529.77 896.913 1542.15 901.509 1554.43 906.236 C 1621.87 931.553 1679.24 978.126 1717.88 1038.92 C 1727.18 1053.83 1736.29 1074.64 1715.74 1086.69 C 1703.41 1093.92 1689.18 1086.61 1676.46 1083.48 C 1654.03 1077.79 1626.56 1082.46 1606.62 1093.81 C 1586.3 1105.39 1568.8 1136.36 1563.36 1158.28 C 1563.46 1158.67 1563.57 1159.06 1563.67 1159.46 L 1564.12 1161.28 L 1564.44 1162.48 C 1565.77 1167.81 1565.7 1172.25 1562.59 1177.03 C 1559.57 1181.59 1554.78 1184.68 1549.38 1185.57 C 1535 1188.03 1525.89 1176.53 1523.72 1163.51 L 1523.51 1162.2 C 1519.69 1159.68 1515.8 1157.26 1511.85 1154.95 C 1449.81 1119.45 1388.62 1158.02 1356.76 1214.01 C 1365.84 1243.39 1375.63 1267.65 1384.19 1298.82 C 1388.85 1316.01 1392.89 1333.36 1396.29 1350.84 C 1401.18 1375.87 1401.93 1400.05 1415.63 1421.16 C 1434.54 1399.84 1453.7 1389.62 1483.12 1395.52 C 1497.42 1398.39 1516 1408.82 1525.7 1419.69 C 1526.77 1415.57 1527.95 1411.47 1529.24 1407.41 C 1536.68 1384.7 1556.49 1367.22 1580.94 1366.54 C 1592.72 1366.22 1599.14 1368.44 1610.2 1372.09 C 1614.68 1367.07 1618.99 1360.92 1623.03 1355.45 C 1613.41 1344.65 1607.36 1335.12 1606.76 1319.97 C 1606.13 1305.93 1611.19 1292.23 1620.81 1281.97 C 1630.53 1271.86 1643.9 1266.06 1657.93 1265.86 C 1671.8 1265.7 1685.16 1271.11 1695.01 1280.87 C 1705.63 1291.1 1711.5 1305.29 1711.21 1320.02 C 1710.79 1337.56 1700.4 1354.93 1685.06 1363.26 C 1673.76 1369.4 1663.59 1369.41 1651.37 1369 C 1628.75 1471.18 1576.25 1559.97 1490.39 1621.17 C 1477.73 1630.04 1464.56 1638.15 1450.95 1645.48 C 1441.9 1650.39 1429.7 1656.15 1421.63 1661.97 C 1419.89 1660.91 1415.8 1663.31 1415.35 1664.17 C 1415.42 1665.87 1424.64 1664.73 1425.68 1664.6 C 1535.64 1663.78 1635.99 1601.81 1685.96 1503.87 C 1690.22 1495.51 1693.88 1486.86 1696.91 1477.98 C 1698.69 1472.67 1701.6 1459.9 1705.54 1457.2 C 1709.01 1456.69 1708.8 1456.55 1711.92 1458.08 C 1716.82 1464.04 1710.68 1477.23 1708.22 1483.73 C 1693.81 1521.81 1669.41 1559.82 1640.62 1588.62 C 1588.8 1639.68 1520.56 1670.71 1448.02 1676.19 C 1436.95 1677.06 1425.85 1677.44 1414.74 1677.31 C 1410.92 1677.26 1393.81 1676.69 1390.81 1677.22 C 1374.33 1680.15 1353.46 1689.28 1337.29 1694.31 C 1325.24 1699.76 1313.35 1714.11 1303.55 1722.6 C 1231.09 1785.32 1129.38 1818.93 1054.07 1743.39 C 1037.77 1742.79 1021.71 1743.38 1005.15 1742.26 C 961.519 1739.3 886.928 1720.3 850.312 1696.58 C 809.401 1722.87 761.866 1735.31 716.876 1750.71 C 648.429 1774.12 579.702 1785.17 518.985 1735.61 C 486.662 1709.22 465.874 1670.02 452.295 1630.98 C 446.901 1615.47 440.968 1600.6 439.908 1583.89 C 431.071 1503.18 496.019 1445.42 568.43 1426.1 C 578.833 1423.32 589.028 1419.92 600.051 1419.01 C 579.64 1394.38 568.603 1372.78 565.045 1340.46 C 557.303 1270.1 585.367 1215.05 627.099 1161.52 C 593.437 1136 543.78 1133.36 509.457 1159.14 C 509.345 1159.93 509.234 1160.72 509.122 1161.51 C 508.082 1175.53 491.59 1192.38 476.919 1183.4 C 459.759 1172.9 471.179 1162.15 466.638 1148.01 C 459.244 1124.99 442.419 1103.03 421.083 1091.27 C 409.02 1084.61 385.805 1077.97 371.788 1081.92 C 350.493 1087.92 328.84 1099.59 319.41 1067.96 C 315.488 1054.8 328.712 1036.2 336.622 1024.69 C 370.692 975.115 417.731 932.944 473.099 908.593 C 485.165 903.281 499.383 897.187 512.325 894.801 C 512.201 853.297 522.492 819.441 550.151 787.597 C 552.29 766.018 553.963 749.427 558.178 728.075 C 569.434 671.06 602.665 598.28 642.827 556.01 C 630.594 530.664 617.688 504.017 612.989 474.422 C 603.653 415.62 634.673 317.39 700.802 303.128 C 710.448 301.047 725.436 302.595 733.364 309.207 C 755.777 327.901 740.74 353.044 736.652 375.869 C 734.672 387.495 734.966 393.265 736.21 404.375 C 754.012 418.824 772.521 429.731 779.526 455.417 L 791.21 451.293 C 799.553 415.224 828.708 358.063 874.916 384.836 C 883.092 389.573 889.05 396.926 895.224 403.949 C 898.914 398.037 902.589 392.397 906.622 386.283 C 928.701 352.815 989.024 299.323 1031.33 328.765 C 1056.25 346.107 1069.18 396.76 1074.23 426.27 L 1093.11 426.314 C 1105.49 401.167 1141.78 368.797 1171.17 388.368 C 1189.71 400.719 1195.52 424.975 1199.13 445.682 C 1203.44 442.378 1211.77 433.584 1216.64 429.372 C 1229.12 418.56 1238.3 414.605 1252.57 407.516 z M 1187.72 498.861 C 1187.19 505.133 1185.45 512.429 1177.25 510.304 C 1168.33 500.736 1181.35 475.523 1186.07 465.236 C 1162.29 454.458 1137.16 446.983 1111.35 443.018 C 1037.42 432.011 971.275 456.943 930.647 521.05 C 919.866 535.77 914.697 569.911 889.528 563.907 C 858.158 556.425 868.862 492.802 870.929 469.989 C 871.52 463.459 876.145 451.128 877.506 443.75 C 875.74 442.515 874.673 443.152 871.882 443.357 C 869.424 443.964 868.17 443.925 866.321 445.514 C 856.282 444.18 840.2 449.839 830.331 452.477 C 716.98 482.781 625.752 568.315 586.537 678.62 C 582.776 689.199 574.625 709.69 573.936 720.227 C 566.44 744.798 566.308 768.635 562.806 793.338 C 558.149 799.416 552.73 806.118 549.17 812.822 C 547.706 813.755 547.106 815.171 546.221 816.637 C 543.003 821.348 541.523 825.184 539.006 830.055 C 536.218 836.267 530.667 850.045 529.762 856.751 C 527.474 866.193 527.818 868.46 526.364 876.744 C 526.085 880.774 525.328 899.062 526.593 902.708 C 527.919 926.18 537.045 948.69 549.286 968.528 C 599.753 1049.21 695.104 1096 784.862 1116.97 C 990.964 1165.14 1348.47 1125.41 1407.19 876.23 C 1407.87 874.562 1408.14 872.85 1408.48 871.083 C 1415.95 840.432 1416.53 797.195 1413.02 766.222 C 1406.09 705.155 1381.7 644.549 1345.11 595.212 C 1336.92 584.162 1326.72 570.656 1316.18 562.088 C 1307.6 569.001 1289.39 583.114 1277.33 581.611 C 1273.63 581.149 1271.73 576.4 1270.31 573.333 C 1276.06 569.64 1284.82 565.951 1291.54 561.755 C 1329.82 537.851 1351.4 497.379 1361.98 454.829 C 1360.78 453.103 1359.51 451.421 1358.18 449.785 C 1344.44 432.699 1318.37 418.381 1296.34 415.86 C 1288.52 414.914 1281.29 415.031 1273.63 417.029 C 1256.02 417.196 1227.99 435.67 1216.24 448.231 C 1203.67 461.663 1192.6 481.137 1187.72 498.861 z M 1021.95 1397.99 C 1012.29 1366.01 1017.88 1340.16 1029.41 1309.63 C 1025.32 1306.63 1034.53 1292.2 1034.65 1291.25 C 1038.51 1286.19 1038.19 1286.99 1040.22 1281.09 L 1040.88 1279.2 C 1038.48 1278.5 1036.04 1278.31 1033.57 1277.96 C 906.134 1311.19 856.05 1307.02 734.061 1258.83 C 733.352 1264.06 730.015 1285.93 731.348 1289 C 746.397 1323.56 753.495 1341.89 746.029 1381.56 C 861.559 1430.94 897.923 1440.23 1021.95 1397.99 z M 501.468 1142.13 C 503.558 1138.02 503.767 1136.19 501.998 1131.6 C 500.032 1137.14 499.603 1137.13 501.468 1142.13 z M 1144.82 1156.3 C 1148.14 1152 1150.66 1147.97 1155.23 1145.19 C 1161.23 1144.77 1161.47 1149.53 1165.37 1148.44 C 1221.68 1132.83 1281.67 1154.74 1317.5 1200.49 C 1314.42 1163.18 1292.63 1103.05 1266.22 1076.26 C 1209.19 1107.2 1147.19 1127.9 1083.01 1137.42 C 1085.09 1149.42 1097.6 1193.14 1102.22 1206.43 C 1115.74 1190.32 1132.49 1172.49 1144.82 1156.3 z M 714.93 1276.61 C 715.711 1276.31 716.266 1275.62 716.374 1274.79 C 716.483 1273.96 716.125 1273.15 715.446 1272.66 C 714.767 1272.18 713.876 1272.11 713.132 1272.49 C 712.064 1273.02 711.603 1274.3 712.081 1275.4 C 712.559 1276.49 713.81 1277.02 714.93 1276.61 z M 682.038 340.674 C 682.283 338.943 687.018 329.331 687.338 329.114 C 691.894 326.033 702.545 326.365 692.679 319.219 C 691.904 319.675 691.125 320.123 690.342 320.565 C 689.122 321.012 688.096 321.489 686.916 322.016 C 660.603 340.675 645.284 363.465 635.006 394.009 C 633.674 397.965 631.643 400.073 635.686 401.364 C 630.323 403.446 629.171 418.683 628.514 423.997 C 627.552 426.926 627.281 426.989 627.574 429.983 C 631.113 428.317 636.148 420.201 639.705 417.231 C 666.837 394.573 689.046 391.934 722.046 398.691 C 721.918 388.571 722.878 378.466 724.911 368.551 C 728.681 350.649 738.183 332.677 723.2 318.379 L 721.659 319.179 C 720.01 320.017 711.934 322.419 708.77 323.784 C 697.518 328.637 691.44 333.647 682.038 340.674 z M 1648.75 1280.7 C 1647.41 1281.47 1646.07 1282.23 1644.73 1282.99 C 1640.61 1284.72 1638.53 1286.12 1634.95 1288.56 C 1631.97 1291.22 1628.92 1293.83 1626.98 1297.32 C 1625.96 1299.51 1624.58 1302.81 1623.28 1304.69 L 1621.33 1310.29 L 1620.89 1312.5 C 1619.78 1317.9 1620.04 1320.8 1621.26 1326.07 C 1623.96 1342.27 1637.88 1354.2 1654.01 1355.9 C 1666.12 1357.19 1675.11 1354.89 1684.45 1346.89 C 1700.8 1332.91 1702.02 1308.28 1687.32 1292.69 C 1679.88 1284.77 1669.48 1279.76 1658.5 1279.98 C 1654.97 1280.05 1652.33 1280.99 1648.75 1280.7 z M 1307.4 1324.04 C 1306.27 1326.62 1305.22 1328.94 1303.88 1331.43 C 1302.84 1336.67 1302.8 1333.97 1302.94 1339.07 C 1301.98 1340.48 1301.83 1339.13 1300.65 1339.73 C 1297.96 1341.12 1295.14 1347.17 1293.63 1349.75 C 1296.24 1351.19 1304.32 1355.43 1307.01 1356.39 C 1310.25 1357.95 1313.44 1359.48 1316.83 1360.66 C 1345.44 1354.29 1358.6 1355.06 1385.83 1366.34 C 1383.02 1352.47 1380.12 1338.77 1376.75 1325.02 L 1375.21 1318.98 C 1374.73 1317.04 1374.36 1315.52 1373.77 1313.6 C 1373.65 1312.5 1373.56 1311.82 1373.33 1310.74 C 1372.46 1307.68 1371.48 1304.22 1370.87 1301.11 C 1370.5 1299.9 1370.13 1298.69 1369.75 1297.48 L 1367.86 1290.52 C 1363.28 1273.62 1355.03 1249.46 1348.87 1232.98 C 1342.21 1233.07 1339.29 1233.23 1332.67 1233.87 C 1330.86 1243.62 1330.35 1252.93 1328.14 1263.01 L 1326.75 1269.49 C 1324.54 1279.28 1321.82 1287.64 1318.84 1297.15 L 1318.34 1298.78 L 1317.96 1300.16 C 1315.17 1306.25 1312.82 1312.04 1310.24 1318.16 C 1309.31 1320.13 1308.3 1322.06 1307.4 1324.04 z M 724.942 1151.08 C 731.839 1154.81 735.635 1157.28 741.968 1161.83 C 745.676 1149.75 750.089 1135.29 754.352 1123.44 C 740.253 1118.76 721.83 1111.27 708.153 1107.85 C 693.703 1116.83 679.487 1129.4 666.015 1139.81 C 685.987 1137.33 707.198 1141.62 724.942 1151.08 z M 364.544 1010.96 C 361.471 1014.46 358.424 1018.57 355.352 1022.25 C 355.605 1023.16 356.191 1027.32 356.841 1027.59 C 357.558 1027.5 363.758 1021.38 364.176 1020.68 C 376.53 1013.39 389.519 997.719 401.095 987.121 C 437.928 953.402 469.243 936.162 515.331 919.428 L 513.135 907.981 C 454.425 924.476 402.406 963.891 364.544 1010.96 z M 883.003 428.752 C 885.329 424.87 886.305 422.693 888.281 418.655 C 882.128 406.705 868.66 391.754 854.341 391.026 C 844.559 390.967 840.065 393.514 832.899 400.469 C 830.31 402.98 816.192 418.824 818.073 421.84 C 813.547 426.271 811.882 433.423 809.327 439.31 C 804.182 448.077 815.47 442.921 819.133 441.509 C 840.204 433.386 861.156 432.008 883.003 428.752 z M 896.476 433.449 C 893.232 439.5 891.38 447.652 889.416 454.256 C 887.047 462.787 883.543 477.045 883.231 485.871 C 884.912 494.103 882.932 509.179 885.444 517.467 C 885.492 517.624 885.825 517.651 885.987 517.657 C 888.748 515.735 883.875 491.147 895.38 489.033 C 897.13 484.954 899.8 474.327 900.471 469.854 C 902.202 464.889 903.944 460.558 905.517 455.447 C 906.868 452.932 909.885 445.773 910.568 442.947 C 921.381 417.018 940.564 388.362 960.991 369.025 C 964.182 366.005 968.069 363.44 970.37 359.649 C 973.288 354.233 975.015 352.312 977.36 346.386 C 981.395 344.302 981.582 345.042 984.824 343.714 C 985.701 343.466 997.347 340.52 989.208 339.59 L 987.447 339.361 C 986.201 339 984.625 338.593 983.467 338.113 C 979.821 339.242 974.863 341.695 971.891 344.133 C 937.475 359.79 911.683 400.379 896.476 433.449 z M 1373.98 1410.35 C 1378.14 1410.58 1378.86 1413.1 1382.5 1414.97 C 1387.7 1423.67 1389.93 1428.1 1390.28 1414.23 C 1389.1 1405.65 1386.28 1403.04 1390.57 1396.01 C 1390.13 1391.65 1388.97 1385.76 1387.88 1381.46 C 1377.89 1376.09 1370.21 1372.57 1358.9 1370.44 C 1357.28 1369.99 1357.29 1370.04 1355.54 1369.93 C 1345.79 1368.13 1338.95 1369.34 1329.42 1370.38 C 1340.52 1378.51 1348.6 1384.59 1358.55 1394.29 C 1362.2 1397.84 1371.31 1408.28 1373.98 1410.35 z M 1243.76 1736.09 C 1240 1739.57 1239.85 1739.45 1235.32 1741.88 C 1232.83 1743.63 1228.81 1752.59 1226.7 1755.88 C 1231.52 1753.69 1236.09 1751.63 1240.98 1749.53 C 1244.47 1743.72 1246.4 1742.29 1243.76 1736.09 z M 1340.24 1166.06 C 1340.75 1167.16 1340.76 1167.18 1341.39 1168.27 C 1344.95 1176.72 1348.2 1186.14 1351.53 1194.78 C 1356.12 1188.56 1362.99 1180.38 1368.03 1174.35 C 1368.81 1173.8 1369.56 1173.31 1370.29 1172.68 C 1371.48 1170.96 1371.81 1170.79 1373.46 1169.26 C 1374.47 1168.29 1374.62 1168.2 1375.42 1167.03 C 1376.25 1166.33 1377.08 1165.64 1377.91 1164.94 C 1385.38 1158.53 1391.93 1153.94 1398.56 1148.35 C 1397.86 1137.09 1390.77 1143.19 1384.75 1133.46 C 1386.14 1130.14 1389.51 1120.32 1383.39 1120.56 L 1381.59 1119.42 C 1376.9 1121.99 1372.47 1124.84 1367.64 1127.23 C 1367.07 1127.58 1366.5 1127.92 1365.93 1128.26 C 1361.67 1130.42 1354.82 1133.69 1350.87 1135.95 L 1349.48 1136.35 C 1342.64 1138.55 1335.67 1140.92 1328.72 1142.75 C 1332.22 1150.91 1336.63 1157.98 1340.24 1166.06 z M 736.795 1730.67 C 738.002 1722.23 748.808 1725.92 744.397 1718.32 C 743.885 1717.44 743.041 1716.82 742.058 1716.58 C 737.885 1715.59 730.02 1730.33 728.671 1733.52 C 731.477 1732.34 734.316 1731.87 736.795 1730.67 z M 1547.38 1174.61 C 1554.92 1166.05 1553.57 1153.86 1540.53 1151.52 L 1539.52 1152.82 C 1532.08 1162.08 1536.95 1170.94 1547.38 1174.61 z M 1657.21 1068.05 L 1668.45 1068.04 C 1666.7 1066.16 1662.23 1061.05 1660.47 1059.67 C 1655.17 1059.28 1654.76 1054.34 1650.9 1055.83 C 1649.36 1056.43 1646.36 1059.48 1648.71 1061.27 C 1651.92 1063.7 1653.67 1064.2 1656.53 1067.31 L 1657.21 1068.05 z M 1365.15 1669.94 C 1367.29 1669.09 1368.62 1668.58 1370.66 1667.51 C 1382.15 1656.44 1389.46 1662.61 1372.82 1650.92 C 1369.83 1653.02 1364.14 1656.92 1361.67 1659.25 L 1362.03 1661.5 C 1359.34 1667.5 1358.25 1666.11 1362.15 1670.85 C 1363.38 1670.42 1363.88 1670.26 1365.15 1669.94 z M 1186.44 450.571 C 1185.71 447.108 1185.18 443.703 1184.47 440.279 C 1175.35 438.889 1175.79 438.577 1176.78 446.753 C 1180.09 448.123 1183.07 449.322 1186.44 450.571 z M 488.907 1172.68 L 490.268 1171.31 C 498.943 1162.81 502.428 1150.95 486.193 1150.93 C 479.705 1158.31 473.855 1174.46 488.907 1172.68 z M 1545.67 1553.19 C 1548.1 1549.99 1555.65 1542.56 1555.49 1538.74 C 1555.18 1530.93 1541.68 1545.31 1537.08 1548.77 C 1534.56 1549.94 1522.53 1558.74 1520.37 1560.68 C 1513.97 1564.57 1508.46 1568.24 1501.78 1571.74 C 1503.71 1578.9 1504.72 1594.38 1514.35 1584.78 C 1514.99 1575.8 1516.23 1572.42 1523.31 1565.9 C 1527.86 1562.97 1528.47 1561.4 1534.51 1560.9 L 1539.08 1560.54 C 1541.39 1558.44 1543.88 1555.74 1545.67 1553.19 z M 655.129 1747.81 C 652.038 1749.7 648.049 1753.19 645.273 1755.6 C 648.846 1755.12 653.651 1754.58 657.067 1753.46 C 656.339 1751.74 656.806 1751.79 658.31 1750.82 C 662.617 1748.84 662.359 1748.49 665.952 1745.51 C 671.585 1740.86 670.685 1740.67 662.963 1739.86 C 659.917 1742.63 657.951 1744.98 655.129 1747.81 z M 338.708 1046.7 C 337.933 1048.23 337.165 1049.76 336.405 1051.3 L 338.608 1055.91 C 342.797 1054.13 342.311 1053.56 343.88 1048.97 C 352.377 1041.22 349.88 1037.89 352.531 1034.5 C 346.047 1033.89 349.769 1042.46 341.048 1042.87 C 340.075 1044.38 339.571 1045.18 338.708 1046.7 z M 1534.64 1137.14 C 1532.32 1136.95 1517.85 1136.18 1519.18 1139.17 C 1521.83 1145.17 1529.51 1142.97 1532.86 1142.34 C 1535.46 1140.74 1534.58 1140.18 1534.64 1137.14 z M 1572.12 1520.18 C 1575.7 1515.94 1577.4 1512.15 1579.78 1507.23 C 1576.7 1510.64 1572.67 1514.48 1570.59 1518.41 C 1561.7 1528.59 1561.69 1532.14 1572.12 1520.18 z M 1269.09 403.42 C 1275.51 393.543 1278.58 379.543 1277.02 367.825 C 1277.83 362.604 1281.27 342.655 1281.11 338.631 C 1281.08 337.028 1280.98 335.69 1281.17 334.103 C 1276.58 325.811 1277.73 326.467 1270.67 327.526 C 1264.08 332.926 1269.84 349.793 1271.11 356.889 C 1271 375.944 1272.17 383.683 1269.09 403.42 z M 1117.49 414.667 C 1115.72 416.619 1107.44 425.382 1108.3 427.848 C 1108.8 428.047 1112.5 428.771 1113.73 429.126 C 1114.65 427.617 1121.44 416.683 1121.43 416.456 C 1121.01 416.026 1118.19 415.001 1117.49 414.667 z M 483.668 1139.25 L 483.931 1137.77 C 482.169 1135.1 482.093 1124.93 478.348 1126.99 C 473.774 1129.51 479.45 1137.15 483.668 1139.25 z M 1472.26 1589.06 C 1476.35 1591.77 1482.79 1594.82 1480.98 1586.31 L 1480.66 1584.72 C 1477.81 1586.07 1475.01 1587.52 1472.26 1589.06 z M 1331.83 1200.17 C 1331.77 1208.28 1332.23 1213.38 1332.99 1221.29 C 1336.87 1220.83 1340.7 1220.28 1344.57 1219.82 C 1340.92 1207.37 1338.96 1203.28 1332.72 1191.68 C 1332.47 1190.44 1332.61 1190.73 1332 1189.7 C 1329.96 1189.23 1331.63 1198.98 1331.83 1200.17 z M 1345.61 420.863 C 1353.01 426.407 1356.65 428.849 1363.69 435.28 C 1363.64 430.165 1363.86 422.714 1363.42 417.869 C 1353.23 416.346 1350.82 413.439 1345.61 420.863 z M 1544.6 1125.22 C 1545.72 1131.1 1551.23 1157.02 1556.72 1135.15 C 1556.88 1125.35 1556.39 1113.22 1544.6 1125.22 z" fill="rgb(18,31,110)" transform="translate(0,0)"></path>
<path d="M 1273.63 417.029 C 1281.29 415.031 1288.52 414.914 1296.34 415.86 C 1318.37 418.381 1344.44 432.699 1358.18 449.785 C 1359.51 451.421 1360.78 453.103 1361.98 454.829 C 1351.4 497.379 1329.82 537.851 1291.54 561.755 C 1284.82 565.951 1276.06 569.64 1270.31 573.333 C 1271.73 576.4 1273.63 581.149 1277.33 581.611 C 1289.39 583.114 1307.6 569.001 1316.18 562.088 C 1326.72 570.656 1336.92 584.162 1345.11 595.212 C 1381.7 644.549 1406.09 705.155 1413.02 766.222 C 1416.53 797.195 1415.95 840.432 1408.48 871.083 L 1407.66 869.974 C 1398.59 855.517 1398.08 878.37 1402.98 877.91 C 1403.67 877.844 1405.07 876.495 1407.19 876.23 C 1348.47 1125.41 990.964 1165.14 784.862 1116.97 C 695.104 1096 599.753 1049.21 549.286 968.528 C 537.045 948.69 527.919 926.18 526.593 902.708 C 526.701 902.316 526.865 900.676 527.568 900.366 C 530.266 901.957 529.121 918.479 533.916 920.597 C 535.983 919.723 538.753 913.122 537.33 910.507 C 536.808 910.168 537.082 910.261 536.521 910.194 C 535.738 910.597 534.298 918.807 533.264 918.565 C 531.37 913.425 531.7 906.348 530.748 901.004 C 529.511 894.056 536.873 898.281 537.871 898.007 C 539.683 895.988 539.356 886.154 538.705 883.05 C 537.545 877.521 539.473 873.008 539.72 867.575 C 539.869 864.307 539.71 862.18 538.598 858.948 C 538.807 852.143 530.425 853.994 534.187 849.255 C 537.99 844.742 534.667 845.86 540.163 843.16 C 541.089 843.324 542.015 843.487 542.94 843.651 C 543.011 845.177 541.125 850.638 543.22 852.088 C 544.958 852.026 543.473 850.885 546.954 850.762 C 549.581 848.343 547.592 838.698 547.806 837.218 C 547.554 836.767 547.68 836.582 547.891 836.086 C 551.107 834.669 554.773 832.227 558.213 830.456 C 558.11 829.098 556.056 827.563 555.303 825.956 C 554.067 823.319 554.746 821.18 555.915 818.515 C 557.597 814.681 558.83 811.32 558.642 807.003 C 558.619 806.473 558.056 805.903 557.902 805.959 C 554.003 807.376 555.33 809.585 549.17 812.822 C 552.73 806.118 558.149 799.416 562.806 793.338 C 566.308 768.635 566.44 744.798 573.936 720.227 L 574.088 720.266 C 576.627 718.969 580.441 700.972 581.636 697.16 C 619.481 576.396 714.537 483.526 837.534 452.082 C 842.772 450.743 849.686 457.984 859.16 455.245 L 860.861 455.777 C 862.195 456.158 863.262 456.609 864.376 457.446 C 864.461 459.535 864.178 466.204 865.67 467.63 C 867.224 467.849 867.965 461.116 867.981 459.683 C 871.723 452.919 875.647 450.53 871.882 443.357 C 874.673 443.152 875.74 442.515 877.506 443.75 C 876.145 451.128 871.52 463.459 870.929 469.989 C 868.862 492.802 858.158 556.425 889.528 563.907 C 914.697 569.911 919.866 535.77 930.647 521.05 C 971.275 456.943 1037.42 432.011 1111.35 443.018 C 1137.16 446.983 1162.29 454.458 1186.07 465.236 C 1181.35 475.523 1168.33 500.736 1177.25 510.304 C 1185.45 512.429 1187.19 505.133 1187.72 498.861 C 1192.6 481.137 1203.67 461.663 1216.24 448.231 C 1227.99 435.67 1256.02 417.196 1273.63 417.029 z M 1187.72 498.861 C 1187.76 499.101 1188.56 505.778 1188.56 505.782 C 1189.12 505.545 1189.56 499.996 1189.87 498.423 C 1190.82 493.723 1199.02 473.432 1201.57 471.211 L 1201.74 471.211 C 1202.47 472.03 1202.87 473.076 1203.56 473.915 C 1204.29 473.964 1204.95 474.013 1205.63 474.228 L 1205.69 474.426 C 1203.25 478.638 1189.66 498.901 1192.12 503.074 C 1195.35 497.532 1197.13 491.1 1200.6 485.534 C 1222.39 450.557 1250.13 432.48 1287.75 418.581 C 1290.4 418.029 1292.33 417.755 1294.81 416.57 L 1296.34 415.86 C 1288.52 414.914 1281.29 415.031 1273.63 417.029 C 1256.02 417.196 1227.99 435.67 1216.24 448.231 C 1203.67 461.663 1192.6 481.137 1187.72 498.861 z M 1313.89 574.823 C 1317.62 573.105 1326.21 574.509 1317.94 566.233 C 1316.3 564.584 1314.56 566.691 1313.81 568.302 C 1307.76 572.805 1305.33 573.154 1313.89 574.823 z M 1258.46 925.744 C 1292.5 896.037 1314.9 867.155 1323.39 821.494 C 1333.62 761.174 1317.5 702.342 1284.26 652.386 C 1200.95 527.171 1039.69 528.156 973.447 670.88 C 968.408 681.702 964.065 692.835 960.446 704.211 C 950.891 734.467 946.911 767.139 919.648 786.023 C 898.385 776.155 874.038 775.289 852.126 783.619 C 842.227 787.209 833.144 792.737 825.409 799.881 C 801.631 799.288 790.408 799.037 766.812 804.03 C 758.77 761.086 731.076 734.984 685.158 742.828 C 646.168 749.488 621.633 791.168 630.304 828.73 C 632.407 838.195 635.299 844.797 639.513 853.495 C 662.696 860.129 669.906 864.372 685.372 882.14 C 699.295 914.286 686.925 937.875 657.721 953.457 C 708.982 976.383 758.754 975.743 808.544 949.149 C 817.283 944.481 825.781 940.232 833.464 933.85 C 852.452 934.575 868.073 930.68 884.583 920.994 C 895.164 927.988 900.121 930.061 912.639 933.144 C 914.066 933.495 921.874 935.283 922.876 935.739 C 930.789 941.552 947.921 948.275 957.134 952.416 C 1009.43 975.92 1069.38 987.142 1126.69 978.193 C 1143.34 975.506 1159.73 971.391 1175.68 965.894 C 1216.36 964.429 1235.24 960.847 1258.46 925.744 z" fill="rgb(233,232,224)" transform="translate(0,0)"></path>
<path d="M 1273.63 417.029 C 1281.29 415.031 1288.52 414.914 1296.34 415.86 C 1318.37 418.381 1344.44 432.699 1358.18 449.785 C 1359.51 451.421 1360.78 453.103 1361.98 454.829 C 1351.4 497.379 1329.82 537.851 1291.54 561.755 C 1284.82 565.951 1276.06 569.64 1270.31 573.333 C 1242.58 571.856 1214.99 558.277 1199.55 534.477 C 1193.99 525.89 1189.68 513.267 1192.12 503.074 C 1189.66 498.901 1203.25 478.638 1205.69 474.426 L 1205.63 474.228 C 1204.95 474.013 1204.29 473.964 1203.56 473.915 C 1202.87 473.076 1202.47 472.03 1201.74 471.211 L 1201.57 471.211 C 1199.02 473.432 1190.82 493.723 1189.87 498.423 C 1189.56 499.996 1189.12 505.545 1188.56 505.782 C 1188.56 505.778 1187.76 499.101 1187.72 498.861 C 1192.6 481.137 1203.67 461.663 1216.24 448.231 C 1227.99 435.67 1256.02 417.196 1273.63 417.029 z M 1187.72 498.861 C 1187.76 499.101 1188.56 505.778 1188.56 505.782 C 1189.12 505.545 1189.56 499.996 1189.87 498.423 C 1190.82 493.723 1199.02 473.432 1201.57 471.211 L 1201.74 471.211 C 1202.47 472.03 1202.87 473.076 1203.56 473.915 C 1204.29 473.964 1204.95 474.013 1205.63 474.228 L 1205.69 474.426 C 1203.25 478.638 1189.66 498.901 1192.12 503.074 C 1195.35 497.532 1197.13 491.1 1200.6 485.534 C 1222.39 450.557 1250.13 432.48 1287.75 418.581 C 1290.4 418.029 1292.33 417.755 1294.81 416.57 L 1296.34 415.86 C 1288.52 414.914 1281.29 415.031 1273.63 417.029 C 1256.02 417.196 1227.99 435.67 1216.24 448.231 C 1203.67 461.663 1192.6 481.137 1187.72 498.861 z" fill="rgb(237,153,185)" transform="translate(0,0)"></path>
<path d="M 1273.63 417.029 C 1281.29 415.031 1288.52 414.914 1296.34 415.86 L 1294.81 416.57 C 1292.33 417.755 1290.4 418.029 1287.75 418.581 C 1250.13 432.48 1222.39 450.557 1200.6 485.534 C 1197.13 491.1 1195.35 497.532 1192.12 503.074 C 1189.66 498.901 1203.25 478.638 1205.69 474.426 L 1205.63 474.228 C 1204.95 474.013 1204.29 473.964 1203.56 473.915 C 1202.87 473.076 1202.47 472.03 1201.74 471.211 L 1201.57 471.211 C 1199.02 473.432 1190.82 493.723 1189.87 498.423 C 1189.56 499.996 1189.12 505.545 1188.56 505.782 C 1188.56 505.778 1187.76 499.101 1187.72 498.861 C 1192.6 481.137 1203.67 461.663 1216.24 448.231 C 1227.99 435.67 1256.02 417.196 1273.63 417.029 z M 1205.93 472.405 C 1209.28 468.542 1215.93 462.515 1216.51 458.487 C 1217.37 452.481 1232.5 446.051 1227.4 441.654 C 1219 447.858 1208.9 460.898 1203.83 470.517 C 1203.55 471.036 1205.58 472.174 1205.93 472.405 z M 1238.43 439.002 C 1238.95 436.525 1239.69 432.779 1236.29 436.501 L 1235.2 437.136 C 1231.67 439.075 1237.66 438.962 1238.43 439.002 z" fill="rgb(253,253,252)" transform="translate(0,0)"></path>
<path d="M 1273.63 417.029 C 1281.29 415.031 1288.52 414.914 1296.34 415.86 L 1294.81 416.57 C 1292.33 417.755 1290.4 418.029 1287.75 418.581 C 1283.08 416.278 1278.89 417.87 1273.63 417.029 z" fill="rgb(233,232,224)" transform="translate(0,0)"></path>
<path d="M 1227.4 441.654 C 1232.5 446.051 1217.37 452.481 1216.51 458.487 C 1215.93 462.515 1209.28 468.542 1205.93 472.405 C 1205.58 472.174 1203.55 471.036 1203.83 470.517 C 1208.9 460.898 1219 447.858 1227.4 441.654 z" fill="rgb(253,253,252)" fill-opacity="0.921569" transform="translate(0,0)"></path>
<path d="M 1236.29 436.501 C 1239.69 432.779 1238.95 436.525 1238.43 439.002 C 1237.66 438.962 1231.67 439.075 1235.2 437.136 L 1236.29 436.501 z" fill="rgb(253,253,252)" fill-opacity="0.85098" transform="translate(0,0)"></path>
<path d="M 919.648 786.023 C 946.911 767.139 950.891 734.467 960.446 704.211 C 964.065 692.835 968.408 681.702 973.447 670.88 C 1039.69 528.156 1200.95 527.171 1284.26 652.386 C 1317.5 702.342 1333.62 761.174 1323.39 821.494 C 1314.9 867.155 1292.5 896.037 1258.46 925.744 C 1235.24 960.847 1216.36 964.429 1175.68 965.894 C 1159.73 971.391 1143.34 975.506 1126.69 978.193 C 1069.38 987.142 1009.43 975.92 957.134 952.416 C 947.921 948.275 930.789 941.552 922.876 935.739 C 921.874 935.283 914.066 933.495 912.639 933.144 C 900.121 930.061 895.164 927.988 884.583 920.994 C 868.073 930.68 852.452 934.575 833.464 933.85 C 825.781 940.232 817.283 944.481 808.544 949.149 C 758.754 975.743 708.982 976.383 657.721 953.457 C 686.925 937.875 699.295 914.286 685.372 882.14 C 669.906 864.372 662.696 860.129 639.513 853.495 C 635.299 844.797 632.407 838.195 630.304 828.73 C 621.633 791.168 646.168 749.488 685.158 742.828 C 731.076 734.984 758.77 761.086 766.812 804.03 C 790.408 799.037 801.631 799.288 825.409 799.881 C 833.144 792.737 842.227 787.209 852.126 783.619 C 874.038 775.289 898.385 776.155 919.648 786.023 z M 1165.59 851.779 C 1171.48 838.84 1176.45 828.201 1177.25 813.845 C 1180.09 762.397 1131.48 727.332 1083.61 746.297 C 1066.6 753.147 1053.04 766.49 1045.9 783.372 C 1030.62 818.716 1044.88 863.296 1081.93 877.568 C 1093.13 881.881 1104.35 883.535 1116.34 883.643 C 1127.11 865.201 1145.88 856.962 1165.59 851.779 z M 712.433 850.717 C 716.749 849.808 719.578 845.656 718.846 841.307 C 718.115 836.958 714.082 833.962 709.707 834.515 C 706.713 834.894 704.168 836.882 703.075 839.695 C 701.982 842.508 702.518 845.693 704.471 847.993 C 706.424 850.293 709.481 851.339 712.433 850.717 z" fill="rgb(121,160,225)" transform="translate(0,0)"></path>
<path d="M 1116.34 883.643 C 1104.35 883.535 1093.13 881.881 1081.93 877.568 C 1044.88 863.296 1030.62 818.716 1045.9 783.372 C 1053.04 766.49 1066.6 753.147 1083.61 746.297 C 1131.48 727.332 1180.09 762.397 1177.25 813.845 C 1176.45 828.201 1171.48 838.84 1165.59 851.779 C 1145.88 856.962 1127.11 865.201 1116.34 883.643 z M 1084.38 820.453 C 1086.54 819.952 1087.91 819.65 1089.99 818.85 C 1099.16 815.427 1106.55 808.426 1110.47 799.452 C 1114.29 790.532 1113.76 783.004 1110.31 774.163 C 1109.49 772.416 1109.17 771.909 1108.14 770.215 L 1107.67 769.176 C 1106.88 768.55 1106.09 767.924 1105.3 767.298 C 1074.83 742.121 1032.55 804.786 1070.87 820.481 C 1073.56 821.436 1076.64 821.542 1079.48 821.628 C 1081.52 821.24 1082.41 821.072 1084.38 820.453 z M 1122.51 849.91 C 1126.89 849.118 1129.85 844.982 1129.17 840.582 C 1128.5 836.182 1124.45 833.118 1120.03 833.67 C 1117.07 834.041 1114.54 835.993 1113.42 838.768 C 1112.31 841.543 1112.8 844.702 1114.68 847.018 C 1116.57 849.334 1119.57 850.442 1122.51 849.91 z" fill="rgb(18,31,110)" transform="translate(0,0)"></path>
<path d="M 1059.41 790.108 C 1059.76 783.388 1070.27 768.451 1078 768.483 C 1079.16 768.488 1088.2 767.768 1086.19 765.771 C 1085.61 765.196 1085.53 764.935 1085.67 764.375 C 1088.27 762.859 1088.8 766.385 1089.67 766.687 C 1093.65 768.063 1100.64 766.997 1105.3 767.298 C 1106.09 767.924 1106.88 768.55 1107.67 769.176 C 1094.32 772.131 1106.95 782.012 1107.42 777.405 C 1107.48 776.829 1107.3 772.867 1108.14 770.215 C 1109.17 771.909 1109.49 772.416 1110.31 774.163 C 1106.18 781.483 1113.45 796.805 1102.61 801.25 C 1097.41 803.387 1097.25 812.316 1091.14 814.368 C 1088.77 815.253 1085.42 817.863 1084.38 820.453 C 1082.41 821.072 1081.52 821.24 1079.48 821.628 C 1079.73 797.551 1072.29 816.234 1062.67 805.4 C 1062.39 805.089 1068.21 791.391 1059.41 790.108 z" fill="url(#Gradient2)" transform="translate(0,0)"></path>
<path d="M 1070.87 820.481 C 1032.55 804.786 1074.83 742.121 1105.3 767.298 C 1100.64 766.997 1093.65 768.063 1089.67 766.687 C 1088.8 766.385 1088.27 762.859 1085.67 764.375 C 1085.53 764.935 1085.61 765.196 1086.19 765.771 C 1088.2 767.768 1079.16 768.488 1078 768.483 C 1070.27 768.451 1059.76 783.388 1059.41 790.108 L 1059.14 791.995 C 1058 799.825 1060.13 803.061 1061.9 810.909 C 1065.67 814.726 1069.31 816.206 1070.87 820.481 z" fill="rgb(253,253,252)" fill-opacity="0.839216" transform="translate(0,0)"></path>
<path d="M 1084.38 820.453 C 1085.42 817.863 1088.77 815.253 1091.14 814.368 C 1097.25 812.316 1097.41 803.387 1102.61 801.25 C 1113.45 796.805 1106.18 781.483 1110.31 774.163 C 1113.76 783.004 1114.29 790.532 1110.47 799.452 C 1106.55 808.426 1099.16 815.427 1089.99 818.85 C 1087.91 819.65 1086.54 819.952 1084.38 820.453 z" fill="rgb(253,253,252)" fill-opacity="0.988235" transform="translate(0,0)"></path>
<path d="M 1059.41 790.108 C 1068.21 791.391 1062.39 805.089 1062.67 805.4 C 1072.29 816.234 1079.73 797.551 1079.48 821.628 C 1076.64 821.542 1073.56 821.436 1070.87 820.481 C 1069.31 816.206 1065.67 814.726 1061.9 810.909 C 1060.13 803.061 1058 799.825 1059.14 791.995 L 1059.41 790.108 z" fill="rgb(253,253,252)" fill-opacity="0.658824" transform="translate(0,0)"></path>
<path d="M 1107.67 769.176 L 1108.14 770.215 C 1107.3 772.867 1107.48 776.829 1107.42 777.405 C 1106.95 782.012 1094.32 772.131 1107.67 769.176 z" fill="rgb(253,253,252)" fill-opacity="0.686275" transform="translate(0,0)"></path>
<path d="M 639.513 853.495 C 635.299 844.797 632.407 838.195 630.304 828.73 C 621.633 791.168 646.168 749.488 685.158 742.828 C 731.076 734.984 758.77 761.086 766.812 804.03 C 767.277 820.15 763.663 836.222 753.989 849.444 C 729.54 858.759 726.877 864.987 708.904 881.719 L 685.372 882.14 C 669.906 864.372 662.696 860.129 639.513 853.495 z M 712.433 850.717 C 716.749 849.808 719.578 845.656 718.846 841.307 C 718.115 836.958 714.082 833.962 709.707 834.515 C 706.713 834.894 704.168 836.882 703.075 839.695 C 701.982 842.508 702.518 845.693 704.471 847.993 C 706.424 850.293 709.481 851.339 712.433 850.717 z" fill="rgb(18,31,110)" transform="translate(0,0)"></path>
<path d="M 672.239 763.194 C 695.601 761.134 708.301 771.673 700.921 797.991 C 698.088 808.092 686.339 816.415 676.77 820.657 C 635.377 824.7 636.926 778.439 672.239 763.194 z" fill="rgb(253,253,252)" transform="translate(0,0)"></path>
<path d="M 1165.59 851.779 C 1214.35 844.545 1272.46 865.511 1258.46 925.744 C 1235.24 960.847 1216.36 964.429 1175.68 965.894 C 1133.58 957.544 1097.4 931.879 1116.34 883.643 C 1127.11 865.201 1145.88 856.962 1165.59 851.779 z" fill="rgb(237,153,185)" transform="translate(0,0)"></path>
<path d="M 825.409 799.881 C 833.144 792.737 842.227 787.209 852.126 783.619 C 874.038 775.289 898.385 776.155 919.648 786.023 C 975.065 817.382 966.855 873.372 905.862 889.809 C 851.47 904.466 774.973 857.535 825.409 799.881 z" fill="rgb(238,121,111)" transform="translate(0,0)"></path>
<path d="M 933.687 837.065 C 942.632 838.922 942.496 844.939 939.195 852.587 C 936.563 858.684 930.306 861.297 924.26 863.098 C 910.562 861.542 916.518 842.136 933.687 837.065 z" fill="rgb(18,31,110)" transform="translate(0,0)"></path>
<path d="M 823.637 838.795 C 833.936 838.645 839.135 841.196 843.218 851.985 C 844.525 855.439 843.763 859.152 841.566 862.118 L 840.681 863.386 C 827.83 862.12 812.622 851.795 823.637 838.795 z" fill="rgb(18,31,110)" transform="translate(0,0)"></path>
<path d="M 769.463 903.644 C 762.168 906.925 752.006 912.527 746.26 903.819 C 748.448 893.812 764.428 893.078 769.508 883.843 C 771.58 880.077 779.131 869.937 783.972 873.386 C 786.465 881.465 783.937 886.16 780.116 893.397 C 789.5 908.197 800.43 915.014 817.475 919.07 C 832.454 922.635 855.843 922.368 869.297 914.045 C 874.034 911.114 878.652 907.087 884.053 905.815 C 891.568 907.934 895.14 914.16 907.463 917.958 C 929.144 924.64 955.803 922.72 975.919 911.653 C 983.846 907.285 990.853 901.424 996.553 894.394 C 993.703 887.188 989.524 881.375 996.385 875.764 C 1005.3 874.485 1005.6 885.322 1010.83 889.611 C 1015.96 893.807 1029.93 897.186 1030.02 905.316 C 1023.85 912.907 1013.67 907.148 1007.01 903.735 C 977.937 931.823 962.589 934.074 922.876 935.739 C 921.874 935.283 914.066 933.495 912.639 933.144 C 900.121 930.061 895.164 927.988 884.583 920.994 C 868.073 930.68 852.452 934.575 833.464 933.85 C 807.302 930.96 785.995 925.682 769.463 903.644 z" fill="rgb(18,31,110)" transform="translate(0,0)"></path>
<path d="M 1117.42 653.272 C 1136.21 651.81 1154.53 657.618 1165.35 674.376 C 1167.3 677.393 1179.78 700.523 1163.44 698.533 C 1159.81 698.091 1157.45 687.335 1155.26 683.406 C 1149.69 673.417 1142.09 670.136 1131.33 667.049 C 1115.04 665.947 1097.35 668.359 1090.68 685.902 C 1089.43 689.178 1083.8 708.304 1075.22 693.494 C 1073.2 690.012 1080.2 675.69 1082.83 671.975 C 1091.09 660.293 1103.87 655.409 1117.42 653.272 z" fill="rgb(18,31,110)" transform="translate(0,0)"></path>
<path d="M 657.721 953.457 C 618.871 965.205 558.518 960.221 553.295 904.998 C 553.08 902.722 554.523 895.892 554.715 892.62 L 553.4 893.037 C 551.232 899.567 551.784 909.67 549.922 917.644 C 547.401 911.731 548.164 899.85 549.021 893.373 C 549.928 886.519 554.808 888.71 557.582 882.784 C 557.052 880.1 556.961 879.719 556.966 877.004 L 559.212 875.065 L 560.025 875.392 C 559.796 878.258 559.446 877.931 560.235 880.428 C 585.688 853.557 603.058 850.741 639.513 853.495 C 662.696 860.129 669.906 864.372 685.372 882.14 C 699.295 914.286 686.925 937.875 657.721 953.457 z" fill="rgb(237,153,185)" transform="translate(0,0)"></path>
<path d="M 693.517 653.226 C 714.934 651.329 749.263 661.675 748.118 694.499 C 747.929 699.926 736.757 700.227 735.228 692.007 C 732.465 677.158 722.478 671.192 708.887 667.024 L 707.552 666.883 C 700.396 666.078 694.008 666.07 687.014 668.266 C 678.258 671.077 671.142 677.53 667.489 685.969 C 665.574 690.502 664.701 698.401 659.456 698.59 C 642.558 699.199 656.197 676.466 658.807 672.933 C 668.178 660.242 679.523 655.656 693.517 653.226 z" fill="rgb(18,31,110)" transform="translate(0,0)"></path>
<path d="M 1313.81 568.302 C 1314.56 566.691 1316.3 564.584 1317.94 566.233 C 1326.21 574.509 1317.62 573.105 1313.89 574.823 C 1315.82 571.82 1315.19 571.86 1313.81 568.302 z" fill="rgb(246,243,241)" fill-opacity="0.901961" transform="translate(0,0)"></path>
<path d="M 1313.81 568.302 C 1315.19 571.86 1315.82 571.82 1313.89 574.823 C 1305.33 573.154 1307.76 572.805 1313.81 568.302 z" fill="rgb(246,243,241)" fill-opacity="0.854902" transform="translate(0,0)"></path>
<path d="M 1121.21 1484.33 C 1125.87 1483.56 1133.15 1483.61 1137.78 1483.92 C 1244.18 1491.06 1283.97 1651.66 1227.35 1727.77 C 1210.03 1751.07 1189.3 1766.15 1160.88 1770.92 C 1094.29 1783.36 1037.76 1720.64 1029.66 1659.07 C 1020.96 1592.85 1044.01 1496.29 1121.21 1484.33 z" fill="rgb(121,160,225)" transform="translate(0,0)"></path>
<path d="M 523.558 1473.31 C 590.118 1466.82 627.778 1537.92 650.706 1588.11 C 677.107 1645.9 689.603 1746.39 603.381 1755.15 C 579.533 1755.35 557.676 1745.99 537.605 1732.28 C 493.768 1702.31 464.099 1639.27 454.05 1588.15 C 444.788 1541.03 470.14 1481.29 523.558 1473.31 z" fill="rgb(121,160,225)" transform="translate(0,0)"></path>
<path d="M 741.676 1394.01 C 757.644 1401.99 774.467 1408.29 790.801 1414.77 C 881.94 1450.95 938.524 1438.99 1027.44 1411.12 C 1048.59 1448.23 1088.31 1458.74 1128.27 1460.44 C 1125.49 1464.21 1122.98 1467.06 1119.93 1470.56 C 1093.73 1476.85 1080.01 1482.3 1059.83 1500.15 C 1043.95 1517.28 997.595 1529.72 974.853 1536.81 C 875.609 1567.76 791.57 1532.81 705.639 1482.32 C 700.901 1468.23 698.408 1454.77 696.676 1440.07 C 720.854 1427.69 728.658 1417.57 741.676 1394.01 z" fill="rgb(121,160,225)" transform="translate(0,0)"></path>
<path d="M 734.061 1258.83 C 856.05 1307.02 906.134 1311.19 1033.57 1277.96 C 1036.04 1278.31 1038.48 1278.5 1040.88 1279.2 C 1032.5 1281.49 1023.6 1282.17 1034.65 1291.25 C 1034.53 1292.2 1025.32 1306.63 1029.41 1309.63 C 1017.88 1340.16 1012.29 1366.01 1021.95 1397.99 C 897.923 1440.23 861.559 1430.94 746.029 1381.56 C 753.495 1341.89 746.397 1323.56 731.348 1289 C 730.015 1285.93 733.352 1264.06 734.061 1258.83 z M 743.411 1275.63 C 747.965 1266.86 747.793 1265.82 736.831 1264.39 C 736.151 1267.47 734.738 1271.71 736.804 1274.55 C 738.816 1277.31 741.002 1278.37 743.411 1275.63 z" fill="url(#Gradient1)" transform="translate(0,0)"></path>
<path d="M 736.831 1264.39 C 747.793 1265.82 747.965 1266.86 743.411 1275.63 C 741.002 1278.37 738.816 1277.31 736.804 1274.55 C 734.738 1271.71 736.151 1267.47 736.831 1264.39 z" fill="rgb(246,243,241)" fill-opacity="0.47451" transform="translate(0,0)"></path>
<path d="M 754.18 1168.89 C 785.397 1183.36 828.827 1195.07 862.493 1201.54 C 933.341 1215.15 1011.65 1200.7 1080.2 1180.42 C 1083.46 1192.88 1088.04 1207.06 1091.73 1219.56 C 1082.99 1230.47 1074.33 1241.45 1065.77 1252.5 C 1059.83 1259.49 1005.4 1271.89 992.06 1275.3 C 899.492 1298.98 820.983 1282.42 735.421 1243.85 C 742.108 1216.38 745.755 1196.44 754.18 1168.89 z" fill="rgb(121,160,225)" transform="translate(0,0)"></path>
<path d="M 710.749 1500.05 C 728.912 1511.86 763.877 1528.45 784.422 1537 C 875.777 1575.03 949.454 1566.04 1038.65 1528.53 C 1026.4 1552.94 1020.21 1571.64 1016.2 1598.77 C 1014.75 1609.81 1014.19 1622.89 1014 1633.99 C 1004.03 1636.97 994.465 1640.69 984.247 1643.45 C 953.009 1651.61 920.521 1653.88 888.452 1650.13 C 854.475 1646.24 780.004 1624.57 757.722 1596.09 C 745.019 1579.85 708.414 1519.22 710.749 1500.05 z" fill="rgb(248,182,106)" transform="translate(0,0)"></path>
<path d="M 1490.67 904.369 C 1530.59 901.863 1610.83 945.153 1642.53 972.846 C 1654.1 982.953 1747.72 1071.59 1700.79 1077.07 C 1692.07 1078.08 1675.46 1058.14 1667.83 1048.29 C 1638.42 1010.29 1519.63 924.827 1476.93 967.986 C 1472.86 981.87 1467.46 995.33 1460.82 1008.18 C 1430.18 1068.19 1387.64 1110.37 1322.93 1131.42 C 1313.08 1115.62 1302.81 1100.08 1292.15 1084.81 C 1342.67 1076.34 1394.26 1035.28 1415.15 989.241 C 1432.61 950.749 1439.35 909.965 1490.67 904.369 z" fill="rgb(121,160,225)" transform="translate(0,0)"></path>
<path d="M 1634.52 1364.61 C 1636.31 1365.29 1635.47 1364.73 1636.87 1366.52 C 1637.16 1369.72 1636.69 1372.18 1636.03 1375.22 C 1611.86 1485.87 1516.7 1567.02 1410.94 1597.47 C 1406.76 1598.67 1396.55 1601.91 1392.48 1601.06 L 1393.4 1597.73 C 1413.27 1539.57 1413.51 1501.33 1409.97 1440.71 C 1434.85 1448.68 1464.49 1451.21 1490.48 1448.98 C 1533 1445.03 1573.02 1427.12 1604.29 1398.05 C 1615.34 1387.69 1624.75 1376.15 1634.52 1364.61 z" fill="rgb(121,160,225)" transform="translate(0,0)"></path>
<path d="M 1071.7 1290.44 C 1072.16 1290.39 1072.62 1290.35 1073.08 1290.3 C 1125.6 1290.52 1173.14 1324.57 1192.1 1373.26 C 1198.7 1390.19 1200.76 1404.72 1200.79 1422.76 C 1185.29 1432.35 1175.7 1437 1158.27 1441.85 C 1068.38 1462.5 1001.45 1406.01 1042.58 1314.71 C 1045.93 1307.27 1051.11 1297.94 1056.83 1292.11 C 1061.78 1291.5 1066.73 1290.94 1071.7 1290.44 z" fill="rgb(237,153,185)" transform="translate(0,0)"></path>
<path d="M 661.75 1284.41 C 680.901 1282.34 699.92 1286.74 717.105 1295.06 C 748.345 1343.27 741.778 1416.49 676.155 1432 C 668.7 1433.76 660.619 1433.07 653.076 1431.85 C 603.446 1420.09 581.458 1379.06 578.009 1330.68 C 599.664 1304.06 627.536 1287.78 661.75 1284.41 z" fill="rgb(237,153,185)" transform="translate(0,0)"></path>
<path d="M 1188.35 1157.36 C 1230.61 1150.97 1281.47 1173.34 1305.87 1207.64 C 1320.13 1227.67 1320.53 1229.71 1316.1 1253.82 C 1309.23 1291.13 1296.4 1320.4 1275.2 1351.34 C 1274.14 1337.77 1273.02 1331.36 1269.08 1318.36 C 1246 1247.78 1177.75 1217.01 1107.26 1223.06 C 1120.52 1208.01 1132.6 1191.9 1145.39 1176.43 C 1157.52 1161.75 1170.54 1159.82 1188.35 1157.36 z" fill="rgb(121,160,225)" transform="translate(0,0)"></path>
<path d="M 983.467 338.113 L 985.195 337.485 C 994.426 334.034 1008.58 331.512 1017.53 336.598 L 1019.05 337.413 C 1044.76 354.428 1053.55 391.873 1059.55 420.879 C 1059.95 422.78 1060.3 424.686 1060.63 426.599 C 993.568 437.786 949.739 460.959 914.343 521.522 C 909.092 530.506 904.56 547.759 894.829 551.431 C 890.149 551.099 888.396 549.63 886.324 545.287 C 880.561 528.075 881.831 503.715 883.231 485.871 C 884.912 494.103 882.932 509.179 885.444 517.467 C 885.492 517.624 885.825 517.651 885.987 517.657 C 888.748 515.735 883.875 491.147 895.38 489.033 C 897.13 484.954 899.8 474.327 900.471 469.854 C 902.202 464.889 903.944 460.558 905.517 455.447 C 906.868 452.932 909.885 445.773 910.568 442.947 C 921.381 417.018 940.564 388.362 960.991 369.025 C 964.182 366.005 968.069 363.44 970.37 359.649 C 973.288 354.233 975.015 352.312 977.36 346.386 C 981.395 344.302 981.582 345.042 984.824 343.714 C 985.701 343.466 997.347 340.52 989.208 339.59 L 987.447 339.361 C 986.201 339 984.625 338.593 983.467 338.113 z" fill="rgb(248,182,106)" transform="translate(0,0)"></path>
<path d="M 983.467 338.113 L 985.195 337.485 C 994.426 334.034 1008.58 331.512 1017.53 336.598 L 1019.05 337.413 C 1015.24 338.975 1016.38 338.32 1013.01 339.089 C 997.838 342.553 984.889 351.04 972.388 359.888 C 971.487 360.526 971.123 360.154 970.37 359.649 C 973.288 354.233 975.015 352.312 977.36 346.386 C 981.395 344.302 981.582 345.042 984.824 343.714 C 985.701 343.466 997.347 340.52 989.208 339.59 L 987.447 339.361 C 986.201 339 984.625 338.593 983.467 338.113 z" fill="rgb(246,243,241)" transform="translate(0,0)"></path>
<path d="M 883.231 485.871 C 884.912 494.103 882.932 509.179 885.444 517.467 C 885.492 517.624 885.825 517.651 885.987 517.657 C 888.748 515.735 883.875 491.147 895.38 489.033 C 893.29 504.504 889.462 520.251 888.274 536.01 C 887.983 539.871 887.721 541.645 886.324 545.287 C 880.561 528.075 881.831 503.715 883.231 485.871 z" fill="rgb(253,253,252)" transform="translate(0,0)"></path>
<path d="M 1115.69 1235.38 C 1122.27 1234.13 1139.52 1235.04 1146.47 1236.05 C 1182.4 1241.32 1214.89 1256.33 1237.58 1285.58 C 1253.9 1306.63 1264.9 1337.41 1262.25 1364.02 C 1260.61 1380.52 1226.38 1405.92 1212.84 1416.12 C 1213.87 1352.93 1169.45 1299.1 1109.54 1282.51 C 1093.79 1278.15 1080.63 1277.46 1064.4 1277.53 C 1073.35 1266.24 1085.65 1245.98 1095.93 1237.55 C 1102.21 1237.22 1109.37 1236.16 1115.69 1235.38 z" fill="rgb(248,182,106)" transform="translate(0,0)"></path>
<path d="M 767.563 1127.28 C 866.308 1150.79 968.662 1155.02 1069.01 1139.74 C 1071.75 1148.97 1073.93 1158.26 1076.2 1167.61 C 1069.04 1170 1061.54 1171.86 1054.23 1173.79 C 932.707 1205.73 873.987 1199.68 758.21 1156.85 C 761.381 1147.96 764.652 1136.43 767.563 1127.28 z" fill="rgb(121,160,225)" transform="translate(0,0)"></path>
<path d="M 1495.42 970.118 C 1502.24 969.644 1507.94 969.535 1514.75 969.878 C 1561.77 972.246 1629.88 1024.12 1660.47 1059.67 C 1655.17 1059.28 1654.76 1054.34 1650.9 1055.83 C 1649.36 1056.43 1646.36 1059.48 1648.71 1061.27 C 1651.92 1063.7 1653.67 1064.2 1656.53 1067.31 L 1657.21 1068.05 C 1603.07 1070.75 1582.14 1088.54 1556.72 1135.15 C 1556.88 1125.35 1556.39 1113.22 1544.6 1125.22 C 1535.16 1070.62 1515.68 1020.98 1495.42 970.118 z" fill="rgb(225,194,210)" transform="translate(0,0)"></path>
<path d="M 1285.9 1361.02 C 1288.14 1361.9 1290.36 1362.84 1292.54 1363.85 C 1331.15 1381.78 1380.74 1426.48 1395.47 1466.73 C 1406.17 1496.01 1390.59 1570.13 1377.67 1597.49 L 1376.85 1578.75 C 1374.3 1558.38 1368.98 1538.44 1361.04 1519.51 C 1338.26 1466.49 1300.2 1427.95 1246.68 1406.36 C 1264.97 1389.53 1271.47 1380.75 1285.9 1361.02 z" fill="rgb(233,232,224)" transform="translate(0,0)"></path>
<path d="M 1381.59 1119.42 C 1427.85 1089.27 1467.81 1035.06 1485.66 982.88 C 1501.32 1017.08 1513.98 1052.58 1523.47 1088.98 C 1526.38 1100.19 1531.54 1128.29 1534.64 1137.14 C 1532.32 1136.95 1517.85 1136.18 1519.18 1139.17 C 1521.83 1145.17 1529.51 1142.97 1532.86 1142.34 C 1530.81 1144.18 1528.69 1145.97 1526.88 1148.04 C 1482.59 1121.39 1442.71 1123.26 1398.56 1148.35 C 1397.86 1137.09 1390.77 1143.19 1384.75 1133.46 C 1386.14 1130.14 1389.51 1120.32 1383.39 1120.56 L 1381.59 1119.42 z" fill="rgb(225,194,210)" transform="translate(0,0)"></path>
<path d="M 541.343 983.731 C 570.983 1045.74 595.556 1091.11 656.698 1129.82 C 649.309 1137.08 642.375 1144.88 635.398 1152.54 C 626.091 1145.2 620.415 1141.99 609.729 1136.95 C 571.626 1121.88 539.371 1125.93 504.724 1146.39 L 496.317 1139.18 C 504.708 1087.17 522.22 1032.58 541.343 983.731 z M 501.468 1142.13 C 503.558 1138.02 503.767 1136.19 501.998 1131.6 C 500.032 1137.14 499.603 1137.13 501.468 1142.13 z" fill="rgb(225,194,210)" transform="translate(0,0)"></path>
<path d="M 501.998 1131.6 C 503.767 1136.19 503.558 1138.02 501.468 1142.13 C 499.603 1137.13 500.032 1137.14 501.998 1131.6 z" fill="rgb(225,197,211)" fill-opacity="0.427451" transform="translate(0,0)"></path>
<path d="M 375.816 1067.8 C 377.313 1066.09 378.828 1064.41 380.358 1062.73 C 410.272 1030.07 452.498 990.704 494.783 975.582 C 507.004 971.212 520.027 969.891 532.897 969.352 C 528.992 981.573 523.128 995.138 518.529 1007.35 C 511.134 1026.71 504.631 1046.4 499.041 1066.35 C 492.544 1089.67 489.745 1117.9 483.931 1137.77 C 482.169 1135.1 482.093 1124.93 478.348 1126.99 C 473.774 1129.51 479.45 1137.15 483.668 1139.25 C 482.699 1141.71 482.855 1141.61 480.856 1143.3 C 478.106 1141.44 473.699 1130.46 471.567 1126.38 C 466.176 1115.92 459.301 1106.3 451.156 1097.81 C 430.2 1076.4 405.198 1068.25 375.816 1067.8 z" fill="rgb(225,194,210)" transform="translate(0,0)"></path>
<path d="M 684.849 409.259 C 721.635 404.108 753.739 426.87 767.386 460.259 C 733.237 477.741 712.754 490.06 683.473 514.779 C 672.677 524.274 662.607 534.06 652.252 544.029 C 641.617 523.945 634.427 505.232 629.326 483.09 C 621.281 448.171 651.982 415.948 684.849 409.259 z" fill="rgb(237,153,185)" transform="translate(0,0)"></path>
<path d="M 790.694 1634.63 C 807.735 1641.52 824.72 1649.29 842.403 1654.46 C 901.177 1671.64 957.728 1667.28 1014.84 1647.97 C 1016.95 1676.73 1022.09 1693.54 1036.13 1718.47 C 1038 1722.06 1040.93 1726.53 1043.09 1730.07 C 1041.91 1730.12 1040.73 1730.15 1039.55 1730.17 C 972.739 1731.36 895.564 1710.49 839.007 1674.39 C 821.105 1662.96 805.819 1649.36 790.694 1634.63 z" fill="rgb(237,153,185)" transform="translate(0,0)"></path>
<path d="M 531.66 1455.07 C 557.799 1442.35 572.181 1435.37 601.122 1445.9 C 642.31 1460.88 676.893 1492.91 698.376 1530.87 C 713.414 1557.44 688.708 1578.34 662.79 1569.39 C 649.99 1564.97 644.76 1541.86 637.296 1531.57 C 614.432 1494.77 580.06 1462.6 534.959 1459.45 L 531.66 1455.07 z" fill="rgb(248,182,106)" transform="translate(0,0)"></path>
<path d="M 664.463 1584.71 C 682.286 1585.37 691.639 1586.04 705.035 1572.54 C 726.996 1607.5 742.366 1640.72 732.895 1683.04 C 728.801 1701.34 715.33 1729.22 699.947 1740.76 C 693.834 1745.35 665.028 1752.36 657.067 1753.46 C 656.339 1751.74 656.806 1751.79 658.31 1750.82 C 662.617 1748.84 662.359 1748.49 665.952 1745.51 C 671.585 1740.86 670.685 1740.67 662.963 1739.86 C 699.906 1691.32 684.094 1636.93 664.463 1584.71 z" fill="rgb(237,153,185)" transform="translate(0,0)"></path>
<path d="M 1166 1454.24 C 1266.11 1446.81 1342.01 1609.42 1274.7 1604.09 C 1270.83 1603.11 1266.9 1601.98 1263.05 1600.93 C 1248.99 1533.48 1208.88 1475.65 1135.55 1470.59 C 1145.37 1461.22 1152.59 1456.81 1166 1454.24 z" fill="rgb(248,182,106)" transform="translate(0,0)"></path>
<path d="M 666.715 1152.35 C 690.916 1147.66 719.693 1160.48 737.891 1175.66 C 731.819 1198.61 727.041 1216.4 723.286 1239.85 C 704.821 1228.8 697.778 1226.11 677.327 1220.36 C 645.549 1214.8 627.277 1219.11 598.161 1231.87 C 608.56 1207.95 633.371 1174.25 650.962 1155.72 C 656.919 1153.79 660.539 1153.32 666.715 1152.35 z" fill="rgb(121,160,225)" transform="translate(0,0)"></path>
<path d="M 1235.31 1416.26 C 1272.06 1427.6 1310.22 1458.46 1329.3 1491.54 C 1337.62 1504.94 1342.82 1518.22 1338.51 1534.28 C 1335.31 1546.18 1315.38 1562.42 1306.88 1546.61 C 1286.19 1495.57 1247.3 1455.24 1192.5 1442.87 C 1214.22 1432.2 1215.01 1431.17 1235.31 1416.26 z" fill="rgb(248,182,106)" transform="translate(0,0)"></path>
<path d="M 515.331 919.428 C 518.075 933.094 521.498 941.769 526.877 954.703 C 514.482 956.601 500.218 958.627 488.379 963.502 C 438.158 984.184 395.408 1024.56 360.473 1065.31 C 350.47 1076.98 338.779 1083.59 332.344 1065.08 C 332.1 1059.26 332.937 1056.3 336.405 1051.3 L 338.608 1055.91 C 342.797 1054.13 342.311 1053.56 343.88 1048.97 C 352.377 1041.22 349.88 1037.89 352.531 1034.5 C 346.047 1033.89 349.769 1042.46 341.048 1042.87 C 344.287 1037.29 351.501 1027.05 355.352 1022.25 C 355.605 1023.16 356.191 1027.32 356.841 1027.59 C 357.558 1027.5 363.758 1021.38 364.176 1020.68 C 376.53 1013.39 389.519 997.719 401.095 987.121 C 437.928 953.402 469.243 936.162 515.331 919.428 z" fill="rgb(121,160,225)" transform="translate(0,0)"></path>
<path d="M 332.344 1065.08 C 332.1 1059.26 332.937 1056.3 336.405 1051.3 L 338.608 1055.91 C 342.135 1058.55 334.2 1063.66 332.344 1065.08 z" fill="rgb(253,253,252)" transform="translate(0,0)"></path>
<path d="M 1281.17 334.103 L 1281.26 332.925 C 1282.78 316.33 1273.47 325.126 1272.28 324.693 C 1272.16 324.372 1272.13 323.915 1272.36 323.639 C 1283.58 309.804 1301.3 316.101 1314.04 322.67 C 1346.47 342.243 1360.72 381.758 1363.42 417.869 C 1353.23 416.346 1350.82 413.439 1345.61 420.863 C 1314.57 404.009 1306.16 399.545 1269.09 403.42 C 1275.51 393.543 1278.58 379.543 1277.02 367.825 C 1277.83 362.604 1281.27 342.655 1281.11 338.631 C 1281.08 337.028 1280.98 335.69 1281.17 334.103 z" fill="rgb(248,182,106)" transform="translate(0,0)"></path>
<path d="M 1281.17 334.103 L 1281.26 332.925 C 1282.78 316.33 1273.47 325.126 1272.28 324.693 C 1272.16 324.372 1272.13 323.915 1272.36 323.639 C 1283.58 309.804 1301.3 316.101 1314.04 322.67 C 1306.73 325.983 1293.01 323.551 1286.24 333.199 C 1284.76 335.3 1283.38 338.456 1281.11 338.631 C 1281.08 337.028 1280.98 335.69 1281.17 334.103 z" fill="rgb(246,243,241)" transform="translate(0,0)"></path>
<path d="M 717.715 1557.84 C 749.45 1615.38 780.445 1651.99 836.116 1688.42 C 818.875 1701.16 758.277 1724.5 736.795 1730.67 C 738.002 1722.23 748.808 1725.92 744.397 1718.32 C 743.885 1717.44 743.041 1716.82 742.058 1716.58 C 737.885 1715.59 730.02 1730.33 728.671 1733.52 L 725.792 1734.66 L 724.802 1734.09 C 727.291 1729.21 730.433 1725.36 733.153 1720.61 C 740.511 1707.61 745.433 1693.38 747.677 1678.62 C 753.048 1643.97 745.55 1617.41 729.256 1586.87 C 725.101 1579.09 720.253 1569.85 715.095 1562.79 C 716.162 1560.94 716.806 1559.8 717.715 1557.84 z" fill="rgb(237,153,185)" transform="translate(0,0)"></path>
<path d="M 648.5 1231.42 C 673.142 1228.67 701.346 1241.06 720.815 1255.51 C 719.877 1264.36 719.33 1272.15 718.887 1281.04 C 685.004 1267.9 660.671 1267.39 626.293 1278.9 C 603.695 1288.25 593.2 1295.95 576.992 1313.87 C 576.706 1299.16 581.15 1264.89 591.525 1253.97 C 605.085 1239.69 629.691 1233.07 648.5 1231.42 z M 714.93 1276.61 C 715.711 1276.31 716.266 1275.62 716.374 1274.79 C 716.483 1273.96 716.125 1273.15 715.446 1272.66 C 714.767 1272.18 713.876 1272.11 713.132 1272.49 C 712.064 1273.02 711.603 1274.3 712.081 1275.4 C 712.559 1276.49 713.81 1277.02 714.93 1276.61 z" fill="rgb(248,182,106)" transform="translate(0,0)"></path>
<path d="M 713.132 1272.49 C 713.876 1272.11 714.767 1272.18 715.446 1272.66 C 716.125 1273.15 716.483 1273.96 716.374 1274.79 C 716.266 1275.62 715.711 1276.31 714.93 1276.61 C 713.81 1277.02 712.559 1276.49 712.081 1275.4 C 711.603 1274.3 712.064 1273.02 713.132 1272.49 z" fill="rgb(248,182,106)" fill-opacity="0.917647" transform="translate(0,0)"></path>
<path d="M 1266.03 1616.71 C 1288.1 1619.43 1301.55 1615.39 1310.54 1594 C 1312.66 1622.14 1314.74 1643.98 1306.43 1671.62 C 1293.28 1715.37 1283.43 1725.97 1244.74 1747.53 C 1246.56 1742.07 1247.17 1741.14 1246.98 1735.56 L 1245.14 1735.11 L 1246.42 1734.65 L 1245.26 1734.11 L 1243.76 1736.09 C 1240 1739.57 1239.85 1739.45 1235.32 1741.88 C 1235.8 1738.38 1245.79 1725.27 1248.36 1720.63 C 1266.03 1688.65 1268.35 1652.29 1266.03 1616.71 z" fill="rgb(237,153,185)" transform="translate(0,0)"></path>
<path d="M 723.2 318.379 C 738.183 332.677 728.681 350.649 724.911 368.551 C 722.878 378.466 721.918 388.571 722.046 398.691 C 689.046 391.934 666.837 394.573 639.705 417.231 C 636.148 420.201 631.113 428.317 627.574 429.983 C 627.281 426.989 627.552 426.926 628.514 423.997 C 634.344 422.467 644.1 402.256 637.434 399.565 C 644.009 398.676 642.254 397.258 645.478 390.544 C 646.645 388.53 646.788 388.175 647.692 385.948 C 658.313 368.566 665.189 355.497 681.225 341.563 C 681.496 341.267 681.767 340.97 682.038 340.674 C 691.44 333.647 697.518 328.637 708.77 323.784 C 711.934 322.419 720.01 320.017 721.659 319.179 L 723.2 318.379 z" fill="rgb(248,182,106)" fill-opacity="0.988235" transform="translate(0,0)"></path>
<path d="M 1648.75 1280.7 C 1652.33 1280.99 1654.97 1280.05 1658.5 1279.98 C 1669.48 1279.76 1679.88 1284.77 1687.32 1292.69 C 1702.02 1308.28 1700.8 1332.91 1684.45 1346.89 C 1675.11 1354.89 1666.12 1357.19 1654.01 1355.9 C 1637.88 1354.2 1623.96 1342.27 1621.26 1326.07 C 1623.37 1322.31 1623.34 1317.2 1624.14 1312.67 C 1625.19 1310.71 1625.95 1309.41 1626.87 1307.34 C 1628.21 1304.91 1629.2 1303.35 1630.75 1301.05 C 1634.03 1297.27 1637.11 1294.55 1640.27 1291.06 C 1642.12 1290.29 1643.6 1288.95 1645.33 1287.96 C 1652.68 1284.24 1654.98 1285.22 1648.75 1280.7 z M 1669.56 1285.76 C 1668.61 1283.94 1667.77 1284.77 1666.23 1285.59 C 1667.39 1287.56 1667.91 1287.03 1669.56 1285.76 z" fill="rgb(237,153,185)" fill-opacity="0.988235" transform="translate(0,0)"></path>
<path d="M 1666.23 1285.59 C 1667.77 1284.77 1668.61 1283.94 1669.56 1285.76 C 1667.91 1287.03 1667.39 1287.56 1666.23 1285.59 z" fill="rgb(237,153,185)" fill-opacity="0.839216" transform="translate(0,0)"></path>
<path d="M 1351.55 1536.6 C 1361.87 1546.27 1367.88 1611.08 1363.05 1625.48 C 1355.3 1648.64 1334.45 1672.15 1317.66 1689.92 L 1315.55 1691.04 C 1315.06 1688.77 1319.76 1673.69 1320.65 1670.06 C 1329.61 1633.29 1327.9 1602.66 1317.66 1566.72 C 1338.48 1562.01 1343.66 1555.65 1351.55 1536.6 z" fill="rgb(237,153,185)" transform="translate(0,0)"></path>
<path d="M 1310.24 1318.16 C 1315.92 1320.23 1310.9 1323.02 1318.57 1322.78 C 1328.62 1322.46 1315.45 1308.28 1325.57 1307.69 C 1326.49 1308.41 1325.82 1308.66 1326.32 1309.48 C 1333.93 1304.07 1339.02 1298.14 1338.88 1288.52 C 1338.8 1283.01 1344.48 1274.25 1344.23 1273.4 C 1344.55 1273.07 1344.99 1272.84 1345.38 1272.58 C 1348.59 1276.81 1350.14 1279.59 1355.94 1278 C 1357.51 1279.46 1357.44 1279.41 1356.61 1281.38 C 1353.41 1289.01 1356.8 1304 1367.55 1301.96 C 1370.14 1301.48 1368.46 1304.1 1370.87 1301.11 C 1371.48 1304.22 1372.46 1307.68 1373.33 1310.74 C 1370.26 1314.56 1370.59 1313.67 1368.59 1317.73 C 1367.56 1319.81 1364.06 1328.57 1364.7 1330.47 C 1373.11 1355.17 1345.58 1335.9 1336.32 1340.55 C 1332.21 1342.6 1330.48 1341.71 1326.41 1342.09 C 1322.81 1341.48 1312.76 1344.36 1311.58 1344.35 C 1309.99 1342.63 1312.27 1338.94 1309 1338.99 C 1307.75 1339.01 1308.02 1337.78 1308.05 1336.87 C 1317.27 1332.72 1311.72 1328.72 1307.4 1324.04 C 1308.3 1322.06 1309.31 1320.13 1310.24 1318.16 z" fill="rgb(233,232,224)" fill-opacity="0.243137" transform="translate(0,0)"></path>
<path d="M 708.153 1107.85 C 721.83 1111.27 740.253 1118.76 754.352 1123.44 C 750.089 1135.29 745.676 1149.75 741.968 1161.83 C 735.635 1157.28 731.839 1154.81 724.942 1151.08 C 707.198 1141.62 685.987 1137.33 666.015 1139.81 C 679.487 1129.4 693.703 1116.83 708.153 1107.85 z M 747.984 1128.92 C 748.797 1128.44 749.236 1127.52 749.093 1126.59 C 748.95 1125.65 748.253 1124.9 747.333 1124.69 C 746.414 1124.48 745.458 1124.85 744.92 1125.62 C 744.303 1126.51 744.388 1127.71 745.125 1128.5 C 745.862 1129.3 747.051 1129.47 747.984 1128.92 z" fill="rgb(233,232,224)" fill-opacity="0.988235" transform="translate(0,0)"></path>
<path d="M 744.92 1125.62 C 745.458 1124.85 746.414 1124.48 747.333 1124.69 C 748.253 1124.9 748.95 1125.65 749.093 1126.59 C 749.236 1127.52 748.797 1128.44 747.984 1128.92 C 747.051 1129.47 745.862 1129.3 745.125 1128.5 C 744.388 1127.71 744.303 1126.51 744.92 1125.62 z" fill="rgb(233,232,224)" fill-opacity="0.819608" transform="translate(0,0)"></path>
<path d="M 581.753 1030.12 C 612.412 1058.33 653.785 1085.09 692.585 1100.73 C 685.333 1106.64 675.055 1115.39 667.36 1120.18 C 628.565 1095.98 604.731 1071.28 580.731 1032.33 L 581.753 1030.12 z" fill="rgb(121,160,225)" transform="translate(0,0)"></path>
<path d="M 1132.79 402.24 C 1138.92 394.123 1157.48 393.62 1165.55 400.895 C 1178.67 412.714 1180.03 424.705 1184.47 440.279 C 1175.35 438.889 1175.79 438.577 1176.78 446.753 C 1161.79 440.586 1146.3 435.706 1130.49 432.164 C 1124.79 430.921 1119.22 430.304 1113.73 429.126 C 1114.65 427.617 1121.44 416.683 1121.43 416.456 C 1121.01 416.026 1118.19 415.001 1117.49 414.667 L 1117.61 413.616 C 1123.52 409.659 1125.33 406.377 1132.79 402.24 z" fill="rgb(238,121,111)" transform="translate(0,0)"></path>
<path d="M 1117.61 413.616 C 1123.52 409.659 1125.33 406.377 1132.79 402.24 C 1132.1 410.259 1125.37 414.56 1117.61 413.616 z" fill="rgb(233,232,224)" transform="translate(0,0)"></path>
<path d="M 854.341 391.026 C 868.66 391.754 882.128 406.705 888.281 418.655 C 886.305 422.693 885.329 424.87 883.003 428.752 C 861.156 432.008 840.204 433.386 819.133 441.509 C 815.47 442.921 804.182 448.077 809.327 439.31 C 816.674 448.143 823.535 427.48 824.81 422.869 C 825.283 423.118 825.074 423.054 825.443 423.108 C 826.84 422.365 829.495 416.707 830.068 415.104 C 830.542 414.856 830.929 414.466 831.173 413.99 C 832.881 412.167 839.376 403.432 839.651 400.988 C 843.362 398.798 844.69 398.296 847.162 394.919 C 850.996 393.296 850.751 393.453 854.341 391.026 z" fill="rgb(238,121,111)" fill-opacity="0.988235" transform="translate(0,0)"></path>
<path d="M 1383.82 1618.58 L 1385.46 1618.02 C 1390.36 1616.25 1395.4 1614.94 1400.46 1613.72 L 1404.48 1612.77 C 1409.92 1611.5 1415.26 1609.96 1420.6 1608.37 L 1421.45 1612.39 C 1423.72 1623.38 1423.39 1633.2 1422.89 1644.28 C 1407 1652.6 1387.64 1661.83 1370.66 1667.51 C 1382.15 1656.44 1389.46 1662.61 1372.82 1650.92 C 1369.83 1653.02 1364.14 1656.92 1361.67 1659.25 L 1360.86 1659.38 C 1369.54 1643.35 1374.84 1637.77 1383.82 1618.58 z" fill="rgb(237,153,185)" transform="translate(0,0)"></path>
<path d="M 1462.06 1407.31 C 1485.91 1404.92 1502.5 1416.32 1519.65 1431.13 C 1506.74 1433.81 1496.02 1435.31 1482.87 1436.24 C 1461.65 1437.75 1444.12 1435.24 1423.53 1431.29 C 1434.28 1416.87 1444.22 1410.15 1462.06 1407.31 z" fill="rgb(121,160,225)" transform="translate(0,0)"></path>
<path d="M 1480.66 1584.72 C 1484.07 1582.98 1487.98 1580.82 1491.45 1578.98 L 1494.12 1594.99 C 1494.43 1596.78 1495.01 1598.85 1495.42 1600.66 C 1479.08 1613.16 1454.79 1628.01 1436.6 1638.56 C 1436.72 1625.57 1435.65 1616.48 1432.47 1603.84 C 1445.64 1599.76 1458.59 1594.98 1471.25 1589.51 C 1471.59 1589.36 1471.92 1589.21 1472.26 1589.06 C 1476.35 1591.77 1482.79 1594.82 1480.98 1586.31 L 1480.66 1584.72 z" fill="rgb(248,182,106)" transform="translate(0,0)"></path>
<path d="M 1329.42 1370.38 C 1338.95 1369.34 1345.79 1368.13 1355.54 1369.93 C 1353.79 1371.28 1348.73 1373.33 1348.41 1373.84 L 1348.42 1374.05 C 1349.31 1374.88 1354.71 1372.61 1358.24 1375.89 C 1358.42 1375.86 1358.61 1375.83 1358.8 1375.79 C 1358.34 1373.07 1358.18 1373.15 1358.9 1370.44 C 1370.21 1372.57 1377.89 1376.09 1387.88 1381.46 C 1388.97 1385.76 1390.13 1391.65 1390.57 1396.01 C 1386.28 1403.04 1389.1 1405.65 1390.28 1414.23 C 1387.86 1412.39 1382.19 1411.17 1382.5 1414.97 C 1378.86 1413.1 1378.14 1410.58 1373.98 1410.35 C 1371.31 1408.28 1362.2 1397.84 1358.55 1394.29 C 1348.6 1384.59 1340.52 1378.51 1329.42 1370.38 z" fill="rgb(237,153,185)" fill-opacity="0.807843" transform="translate(0,0)"></path>
<path d="M 618.191 1436.14 C 648.111 1443.18 651.031 1450.38 683.682 1444.07 C 685.311 1460.76 688.477 1471.19 692.615 1487.2 C 690.667 1490.29 692.46 1490.37 689.671 1493.23 C 674.825 1477.86 663.784 1465.65 645.391 1453.22 C 636.201 1447.01 626.799 1442.6 618.191 1436.14 z" fill="rgb(248,182,106)" transform="translate(0,0)"></path>
<path d="M 1574.8 1380.13 C 1584.99 1379.45 1590.66 1380.08 1600.71 1381.84 C 1587.77 1395.06 1573.05 1406.41 1556.98 1415.58 C 1555.36 1416.39 1538.98 1425.51 1539.01 1422.02 C 1539.19 1401.91 1558.19 1384.77 1574.8 1380.13 z" fill="rgb(121,160,225)" transform="translate(0,0)"></path>
<path d="M 690.342 320.565 C 691.125 320.123 691.904 319.675 692.679 319.219 C 702.545 326.365 691.894 326.033 687.338 329.114 C 687.018 329.331 682.283 338.943 682.038 340.674 C 681.767 340.97 681.496 341.267 681.225 341.563 C 665.189 355.497 658.313 368.566 647.692 385.948 C 647.57 385.361 646.581 376.392 645.534 377.755 C 639.837 385.171 641.617 386.532 645.478 390.544 C 642.254 397.258 644.009 398.676 637.434 399.565 L 635.686 401.364 C 631.643 400.073 633.674 397.965 635.006 394.009 C 645.284 363.465 660.603 340.675 686.916 322.016 C 688.809 324.405 690.898 326.912 694.245 325.108 C 695.784 322.191 693.041 322.987 690.342 320.565 z M 682.602 328.679 C 679.379 330.83 674.871 333.304 672.834 336.579 C 668.102 340.805 668.233 340.738 664.41 345.996 C 661.889 347.411 658.332 353.223 658.798 356.237 L 658.713 356.281 C 659.827 356.397 664.693 351.85 668.372 350.528 C 670.157 349.899 671.575 348.518 672.25 346.75 C 672.367 346.412 672.484 346.073 672.601 345.735 C 679.202 340.699 679.741 336.708 682.602 328.679 z" fill="rgb(246,243,241)" fill-opacity="0.882353" transform="translate(0,0)"></path>
<path d="M 672.834 336.579 C 674.871 333.304 679.379 330.83 682.602 328.679 C 679.741 336.708 679.202 340.699 672.601 345.735 L 671.434 345.536 C 672.305 342.64 674.111 339.467 672.834 336.579 z" fill="rgb(246,243,241)" fill-opacity="0.811765" transform="translate(0,0)"></path>
<path d="M 671.434 345.536 L 672.601 345.735 C 672.484 346.073 672.367 346.412 672.25 346.75 C 671.575 348.518 670.157 349.899 668.372 350.528 C 664.693 351.85 659.827 356.397 658.713 356.281 L 658.798 356.237 C 658.332 353.223 661.889 347.411 664.41 345.996 C 666.401 348.911 668.865 347.132 671.434 345.536 z" fill="rgb(246,243,241)" fill-opacity="0.823529" transform="translate(0,0)"></path>
<path d="M 672.834 336.579 C 674.111 339.467 672.305 342.64 671.434 345.536 C 668.865 347.132 666.401 348.911 664.41 345.996 C 668.233 340.738 668.102 340.805 672.834 336.579 z" fill="rgb(246,243,241)" fill-opacity="0.752941" transform="translate(0,0)"></path>
<path d="M 573.936 720.227 C 574.625 709.69 582.776 689.199 586.537 678.62 C 625.752 568.315 716.98 482.781 830.331 452.477 C 840.2 449.839 856.282 444.18 866.321 445.514 C 862.92 448.52 855.732 451.359 859.16 455.245 C 849.686 457.984 842.772 450.743 837.534 452.082 C 714.537 483.526 619.481 576.396 581.636 697.16 C 580.441 700.972 576.627 718.969 574.088 720.266 L 573.936 720.227 z" fill="rgb(246,243,241)" fill-opacity="0.964706" transform="translate(0,0)"></path>
<path d="M 1373.33 1310.74 C 1373.56 1311.82 1373.65 1312.5 1373.77 1313.6 C 1372.88 1316.4 1368.98 1325.94 1371.36 1328.96 C 1383.25 1344.03 1368.66 1345.22 1357.99 1346.79 C 1349.43 1348.05 1337.65 1341.74 1332.81 1349.04 L 1332.81 1349.11 L 1333.2 1348.91 C 1331.66 1353.84 1318.09 1347.29 1315.56 1349.94 C 1313.01 1352.6 1309.01 1354.02 1307.01 1356.39 C 1304.32 1355.43 1296.24 1351.19 1293.63 1349.75 C 1295.14 1347.17 1297.96 1341.12 1300.65 1339.73 C 1301.83 1339.13 1301.98 1340.48 1302.94 1339.07 C 1302.8 1333.97 1302.84 1336.67 1303.88 1331.43 C 1305.29 1333.23 1306.68 1335.04 1308.05 1336.87 C 1308.02 1337.78 1307.75 1339.01 1309 1338.99 C 1312.27 1338.94 1309.99 1342.63 1311.58 1344.35 C 1312.76 1344.36 1322.81 1341.48 1326.41 1342.09 C 1330.48 1341.71 1332.21 1342.6 1336.32 1340.55 C 1345.58 1335.9 1373.11 1355.17 1364.7 1330.47 C 1364.06 1328.57 1367.56 1319.81 1368.59 1317.73 C 1370.59 1313.67 1370.26 1314.56 1373.33 1310.74 z" fill="rgb(246,243,241)" fill-opacity="0.0941176" transform="translate(0,0)"></path>
<path d="M 1365.93 1128.26 C 1370.67 1137.55 1364.27 1134.92 1365.35 1142.05 C 1365.77 1144.78 1372.83 1147.37 1369.12 1154 C 1368.3 1156.19 1372.47 1165.85 1373.46 1169.26 C 1371.81 1170.79 1371.48 1170.96 1370.29 1172.68 C 1369.82 1172.16 1369.37 1171.64 1368.92 1171.1 C 1362.83 1163.76 1357.94 1173.55 1354.54 1168.9 C 1348.24 1160.31 1343.18 1170.17 1345.38 1154.98 C 1347.3 1141.72 1356.45 1146.98 1350.87 1135.95 C 1354.82 1133.69 1361.67 1130.42 1365.93 1128.26 z" fill="rgb(225,194,210)" fill-opacity="0.380392" transform="translate(0,0)"></path>
<path d="M 1318.34 1298.78 C 1320.7 1298.74 1323.57 1298.77 1325.44 1297.05 C 1326.57 1296.01 1327.03 1294.5 1327.09 1293.02 C 1327.11 1292.34 1327.11 1291.67 1327.17 1291 C 1327.44 1288.23 1327.46 1285.46 1328.92 1283.01 C 1329.39 1282.23 1329.91 1281.47 1330.34 1280.66 C 1330.73 1279.92 1331.08 1279.15 1331.49 1278.42 C 1333.23 1275.36 1333.52 1273.29 1334.55 1270.09 C 1335.14 1268.26 1335.69 1266.95 1335.17 1265.02 C 1334.8 1263.64 1334.47 1262.42 1334.34 1260.99 C 1334.14 1258.86 1333.21 1256.08 1333.6 1254.01 C 1333.85 1252.7 1334.73 1250.62 1336 1250.04 C 1337.11 1249.54 1339.51 1250.63 1340.49 1251.2 C 1342.37 1252.29 1343.29 1253.93 1343.78 1255.99 C 1345.9 1264.96 1358.07 1272.15 1359.14 1275 C 1359.35 1275.56 1359.49 1276.14 1359.72 1276.7 C 1362.25 1282.88 1358.42 1289.09 1361.41 1294.34 C 1361.98 1295.35 1362.7 1296.96 1363.63 1297.7 C 1364.33 1298.25 1365.18 1298.44 1366.05 1298.25 C 1366.58 1298.14 1367.28 1297.79 1367.81 1298.19 C 1367.87 1298.24 1368.29 1298.83 1368.59 1298.75 C 1369.07 1298.62 1369.61 1297.67 1369.75 1297.48 C 1370.13 1298.69 1370.5 1299.9 1370.87 1301.11 C 1368.46 1304.1 1370.14 1301.48 1367.55 1301.96 C 1356.8 1304 1353.41 1289.01 1356.61 1281.38 C 1357.44 1279.41 1357.51 1279.46 1355.94 1278 C 1354.59 1276.63 1347.11 1268.39 1345.59 1268.57 C 1339.37 1269.29 1336.87 1277.53 1335.88 1282.59 C 1334.91 1287.55 1329.86 1309.65 1321.4 1302.29 C 1319.2 1300.24 1318.79 1302.2 1317.96 1300.16 L 1318.34 1298.78 z M 1340.97 1255.26 C 1341.54 1254.27 1341.38 1253.03 1340.58 1252.21 C 1339.79 1251.39 1338.55 1251.21 1337.55 1251.76 C 1336.6 1252.28 1336.09 1253.33 1336.26 1254.39 C 1336.43 1255.45 1337.25 1256.29 1338.31 1256.48 C 1339.36 1256.68 1340.43 1256.19 1340.97 1255.26 z" fill="rgb(233,232,224)" fill-opacity="0.0784314" transform="translate(0,0)"></path>
<path d="M 1337.55 1251.76 C 1338.55 1251.21 1339.79 1251.39 1340.58 1252.21 C 1341.38 1253.03 1341.54 1254.27 1340.97 1255.26 C 1340.43 1256.19 1339.36 1256.68 1338.31 1256.48 C 1337.25 1256.29 1336.43 1255.45 1336.26 1254.39 C 1336.09 1253.33 1336.6 1252.28 1337.55 1251.76 z" fill="rgb(246,243,241)" fill-opacity="0.164706" transform="translate(0,0)"></path>
<path d="M 1317.96 1300.16 C 1318.79 1302.2 1319.2 1300.24 1321.4 1302.29 C 1329.86 1309.65 1334.91 1287.55 1335.88 1282.59 C 1336.87 1277.53 1339.37 1269.29 1345.59 1268.57 C 1347.11 1268.39 1354.59 1276.63 1355.94 1278 C 1350.14 1279.59 1348.59 1276.81 1345.38 1272.58 C 1344.99 1272.84 1344.55 1273.07 1344.23 1273.4 C 1344.48 1274.25 1338.8 1283.01 1338.88 1288.52 C 1339.02 1298.14 1333.93 1304.07 1326.32 1309.48 C 1325.82 1308.66 1326.49 1308.41 1325.57 1307.69 C 1315.45 1308.28 1328.62 1322.46 1318.57 1322.78 C 1310.9 1323.02 1315.92 1320.23 1310.24 1318.16 C 1312.82 1312.04 1315.17 1306.25 1317.96 1300.16 z" fill="rgb(233,232,224)" fill-opacity="0.133333" transform="translate(0,0)"></path>
<path d="M 889.416 454.256 C 890.011 455.972 890.595 457.691 891.167 459.414 C 886.178 474.876 891.817 471.766 900.471 469.854 C 899.8 474.327 897.13 484.954 895.38 489.033 C 883.875 491.147 888.748 515.735 885.987 517.657 C 885.825 517.651 885.492 517.624 885.444 517.467 C 882.932 509.179 884.912 494.103 883.231 485.871 C 883.543 477.045 887.047 462.787 889.416 454.256 z" fill="rgb(246,243,241)" fill-opacity="0.898039" transform="translate(0,0)"></path>
<path d="M 539.006 830.055 C 541.656 834.885 543.638 838.324 540.163 843.16 C 534.667 845.86 537.99 844.742 534.187 849.255 C 530.425 853.994 538.807 852.143 538.598 858.948 C 539.71 862.18 539.869 864.307 539.72 867.575 C 539.473 873.008 537.545 877.521 538.705 883.05 C 539.356 886.154 539.683 895.988 537.871 898.007 C 536.873 898.281 529.511 894.056 530.748 901.004 C 531.7 906.348 531.37 913.425 533.264 918.565 C 534.298 918.807 535.738 910.597 536.521 910.194 C 537.082 910.261 536.808 910.168 537.33 910.507 C 538.753 913.122 535.983 919.723 533.916 920.597 C 529.121 918.479 530.266 901.957 527.568 900.366 C 526.865 900.676 526.701 902.316 526.593 902.708 C 525.328 899.062 526.085 880.774 526.364 876.744 C 526.632 878.331 526.85 879.169 527.261 880.759 C 527.418 885.515 527.381 890 527.362 894.745 C 527.478 898.139 528.343 896.142 530.375 895.916 C 538.669 894.996 537.191 890.313 536.594 883.26 C 536.424 881.26 536.432 877.707 536.05 875.462 C 535.163 870.253 537.007 873.059 533.111 871.933 C 532.128 870.389 535.492 866.53 533.486 864.257 L 533.319 864.331 C 532.563 865.903 533.508 866.754 532.294 868.166 C 531.829 867.572 529.891 857.84 529.762 856.751 C 530.667 850.045 536.218 836.267 539.006 830.055 z" fill="rgb(246,243,241)" fill-opacity="0.67451" transform="translate(0,0)"></path>
<path d="M 1271.11 356.889 C 1269.84 349.793 1264.08 332.926 1270.67 327.526 C 1277.73 326.467 1276.58 325.811 1281.17 334.103 C 1280.98 335.69 1281.08 337.028 1281.11 338.631 C 1281.27 342.655 1277.83 362.604 1277.02 367.825 C 1274.09 363.438 1276.39 362.331 1271.91 357.928 L 1271.11 356.889 z" fill="rgb(246,243,241)" fill-opacity="0.0235294" transform="translate(0,0)"></path>
<path d="M 889.416 454.256 C 891.38 447.652 893.232 439.5 896.476 433.449 C 898.845 435.602 899.186 438.446 902.825 438.512 C 907.5 438.598 907.838 442.233 910.568 442.947 C 909.885 445.773 906.868 452.932 905.517 455.447 C 898.827 459.135 902.16 454.078 895.377 451.369 C 891.619 451.867 892.125 455.995 891.167 459.414 C 890.595 457.691 890.011 455.972 889.416 454.256 z" fill="rgb(246,243,241)" fill-opacity="0.439216" transform="translate(0,0)"></path>
<path d="M 692.679 319.219 C 705.151 315.162 710.703 313.184 723.2 318.379 L 721.659 319.179 C 720.01 320.017 711.934 322.419 708.77 323.784 C 697.518 328.637 691.44 333.647 682.038 340.674 C 682.283 338.943 687.018 329.331 687.338 329.114 C 691.894 326.033 702.545 326.365 692.679 319.219 z" fill="rgb(246,243,241)" transform="translate(0,0)"></path>
<path d="M 546.221 816.637 C 552.231 816.316 551.79 813.971 552.33 821.039 C 552.923 828.794 550.92 829.371 547.891 836.086 C 547.68 836.582 547.554 836.767 547.806 837.218 C 547.592 838.698 549.581 848.343 546.954 850.762 C 543.473 850.885 544.958 852.026 543.22 852.088 C 541.125 850.638 543.011 845.177 542.94 843.651 C 542.015 843.487 541.089 843.324 540.163 843.16 C 543.638 838.324 541.656 834.885 539.006 830.055 C 541.523 825.184 543.003 821.348 546.221 816.637 z" fill="rgb(246,243,241)" fill-opacity="0.788235" transform="translate(0,0)"></path>
<path d="M 1383.39 1120.56 C 1389.51 1120.32 1386.14 1130.14 1384.75 1133.46 C 1390.77 1143.19 1397.86 1137.09 1398.56 1148.35 C 1391.93 1153.94 1385.38 1158.53 1377.91 1164.94 C 1377.05 1158.28 1386.42 1151.65 1390.28 1146.55 C 1392.14 1144.1 1381.52 1139.64 1380.37 1139.12 C 1380.45 1136.72 1379.73 1129.97 1381.66 1128.81 C 1384.73 1126.99 1383.61 1124.43 1383.39 1120.56 z" fill="rgb(225,197,211)" fill-opacity="0.74902" transform="translate(0,0)"></path>
<path d="M 1367.64 1127.23 C 1368.14 1127.67 1368.48 1127.77 1369.1 1128.06 C 1372.39 1132.01 1373.21 1131.33 1372.61 1136.48 C 1372.2 1139.97 1378.87 1150.56 1380.63 1153.93 C 1376.6 1159.49 1375.62 1159.97 1375.45 1166.38 L 1375.42 1167.03 C 1374.62 1168.2 1374.47 1168.29 1373.46 1169.26 C 1372.47 1165.85 1368.3 1156.19 1369.12 1154 C 1372.83 1147.37 1365.77 1144.78 1365.35 1142.05 C 1364.27 1134.92 1370.67 1137.55 1365.93 1128.26 C 1366.5 1127.92 1367.07 1127.58 1367.64 1127.23 z" fill="rgb(225,197,211)" fill-opacity="0.623529" transform="translate(0,0)"></path>
<path d="M 818.073 421.84 C 816.192 418.824 830.31 402.98 832.899 400.469 C 840.065 393.514 844.559 390.967 854.341 391.026 C 850.751 393.453 850.996 393.296 847.162 394.919 L 845.708 395.039 C 841.827 395.292 841.029 397.744 839.651 400.988 C 839.376 403.432 832.881 412.167 831.173 413.99 C 831.757 412.853 831.424 411.459 830.389 410.708 C 829.355 409.957 827.927 410.073 827.026 410.98 C 826.126 411.888 826.021 413.316 826.78 414.345 C 827.539 415.374 828.935 415.696 830.068 415.104 C 829.495 416.707 826.84 422.365 825.443 423.108 C 825.074 423.054 825.283 423.118 824.81 422.869 C 821.759 419.637 822.272 419.982 818.073 421.84 z" fill="rgb(246,243,241)" fill-opacity="0.980392" transform="translate(0,0)"></path>
<path d="M 529.762 856.751 C 529.891 857.84 531.829 867.572 532.294 868.166 C 533.508 866.754 532.563 865.903 533.319 864.331 L 533.486 864.257 C 535.492 866.53 532.128 870.389 533.111 871.933 C 537.007 873.059 535.163 870.253 536.05 875.462 C 536.432 877.707 536.424 881.26 536.594 883.26 C 537.191 890.313 538.669 894.996 530.375 895.916 C 528.343 896.142 527.478 898.139 527.362 894.745 C 533.91 893.619 530.673 881.632 528.625 878.956 C 528.315 879.224 527.5 880.377 527.261 880.759 C 526.85 879.169 526.632 878.331 526.364 876.744 C 527.818 868.46 527.474 866.193 529.762 856.751 z" fill="rgb(246,243,241)" fill-opacity="0.686275" transform="translate(0,0)"></path>
<path d="M 1349.48 1136.35 L 1350.87 1135.95 C 1356.45 1146.98 1347.3 1141.72 1345.38 1154.98 C 1343.18 1170.17 1348.24 1160.31 1354.54 1168.9 C 1357.94 1173.55 1362.83 1163.76 1368.92 1171.1 C 1369.37 1171.64 1369.82 1172.16 1370.29 1172.68 C 1369.56 1173.31 1368.81 1173.8 1368.03 1174.35 L 1366.95 1173.83 C 1365.67 1173.21 1343.37 1168.47 1341.39 1168.27 C 1340.76 1167.18 1340.75 1167.16 1340.24 1166.06 C 1341.02 1157.84 1344.78 1143.1 1349.48 1136.35 z" fill="rgb(225,197,211)" fill-opacity="0.184314" transform="translate(0,0)"></path>
<path d="M 1369.1 1128.06 C 1378.6 1131.23 1373.74 1133.41 1380.37 1139.12 C 1381.52 1139.64 1392.14 1144.1 1390.28 1146.55 C 1386.42 1151.65 1377.05 1158.28 1377.91 1164.94 C 1377.08 1165.64 1376.25 1166.33 1375.42 1167.03 L 1375.45 1166.38 C 1375.62 1159.97 1376.6 1159.49 1380.63 1153.93 C 1378.87 1150.56 1372.2 1139.97 1372.61 1136.48 C 1373.21 1131.33 1372.39 1132.01 1369.1 1128.06 z" fill="rgb(225,197,211)" fill-opacity="0.717647" transform="translate(0,0)"></path>
<path d="M 891.167 459.414 C 892.125 455.995 891.619 451.867 895.377 451.369 C 902.16 454.078 898.827 459.135 905.517 455.447 C 903.944 460.558 902.202 464.889 900.471 469.854 C 891.817 471.766 886.178 474.876 891.167 459.414 z" fill="rgb(246,243,241)" fill-opacity="0.266667" transform="translate(0,0)"></path>
<path d="M 1544.6 1125.22 C 1556.39 1113.22 1556.88 1125.35 1556.72 1135.15 C 1551.23 1157.02 1545.72 1131.1 1544.6 1125.22 z" fill="rgb(225,197,211)" fill-opacity="0.427451" transform="translate(0,0)"></path>
<path d="M 1390.57 1396.01 C 1392.78 1409.73 1394.64 1422.36 1395.26 1436.29 L 1392.99 1433.5 C 1386.72 1425.65 1379.93 1417.9 1373.98 1410.35 C 1378.14 1410.58 1378.86 1413.1 1382.5 1414.97 C 1387.7 1423.67 1389.93 1428.1 1390.28 1414.23 C 1389.1 1405.65 1386.28 1403.04 1390.57 1396.01 z" fill="rgb(239,165,191)" transform="translate(0,0)"></path>
<path d="M 1523.31 1565.9 C 1527.86 1562.97 1528.47 1561.4 1534.51 1560.9 L 1539.08 1560.54 C 1532.32 1567.88 1522.1 1578.52 1514.35 1584.78 C 1514.99 1575.8 1516.23 1572.42 1523.31 1565.9 z" fill="rgb(248,182,106)" transform="translate(0,0)"></path>
<path d="M 1345.61 420.863 C 1350.82 413.439 1353.23 416.346 1363.42 417.869 C 1363.86 422.714 1363.64 430.165 1363.69 435.28 C 1356.65 428.849 1353.01 426.407 1345.61 420.863 z" fill="rgb(248,182,106)" fill-opacity="0.866667" transform="translate(0,0)"></path>
<path d="M 1033.57 1277.96 C 1039.04 1276.52 1046.41 1274.37 1051.87 1272.68 C 1046.64 1280.04 1041.73 1287.62 1037.17 1295.41 C 1034.83 1299.49 1031.66 1306.22 1029.41 1309.63 C 1025.32 1306.63 1034.53 1292.2 1034.65 1291.25 C 1038.51 1286.19 1038.19 1286.99 1040.22 1281.09 L 1040.88 1279.2 C 1038.48 1278.5 1036.04 1278.31 1033.57 1277.96 z" fill="rgb(246,243,241)" transform="translate(0,0)"></path>
<path d="M 1520.37 1560.68 C 1522.53 1558.74 1534.56 1549.94 1537.08 1548.77 C 1539.37 1551.5 1537.24 1549.03 1539.62 1551.61 L 1541.53 1553.73 C 1542.7 1555.32 1544.5 1553.9 1545.67 1553.19 C 1543.88 1555.74 1541.39 1558.44 1539.08 1560.54 L 1534.51 1560.9 C 1528.47 1561.4 1527.86 1562.97 1523.31 1565.9 C 1521.77 1563.56 1521.57 1563.26 1520.37 1560.68 z" fill="rgb(248,182,106)" fill-opacity="0.603922" transform="translate(0,0)"></path>
<path d="M 1271.11 356.889 L 1271.91 357.928 C 1276.39 362.331 1274.09 363.438 1277.02 367.825 C 1278.58 379.543 1275.51 393.543 1269.09 403.42 C 1272.17 383.683 1271 375.944 1271.11 356.889 z" fill="rgb(246,243,241)" fill-opacity="0.8" transform="translate(0,0)"></path>
<path d="M 1372.82 1650.92 C 1389.46 1662.61 1382.15 1656.44 1370.66 1667.51 C 1368.62 1668.58 1367.29 1669.09 1365.15 1669.94 C 1365.76 1668.28 1371.03 1654.21 1363.15 1660.77 L 1362.03 1661.5 L 1361.67 1659.25 C 1364.14 1656.92 1369.83 1653.02 1372.82 1650.92 z" fill="rgb(237,153,185)" fill-opacity="0.847059" transform="translate(0,0)"></path>
<path d="M 549.17 812.822 C 555.33 809.585 554.003 807.376 557.902 805.959 C 558.056 805.903 558.619 806.473 558.642 807.003 C 558.83 811.32 557.597 814.681 555.915 818.515 C 554.746 821.18 554.067 823.319 555.303 825.956 C 556.056 827.563 558.11 829.098 558.213 830.456 C 554.773 832.227 551.107 834.669 547.891 836.086 C 550.92 829.371 552.923 828.794 552.33 821.039 C 551.79 813.971 552.231 816.316 546.221 816.637 C 547.106 815.171 547.706 813.755 549.17 812.822 z" fill="rgb(246,243,241)" fill-opacity="0.92549" transform="translate(0,0)"></path>
<path d="M 1243.76 1736.09 C 1246.4 1742.29 1244.47 1743.72 1240.98 1749.53 C 1236.09 1751.63 1231.52 1753.69 1226.7 1755.88 C 1228.81 1752.59 1232.83 1743.63 1235.32 1741.88 C 1239.85 1739.45 1240 1739.57 1243.76 1736.09 z" fill="rgb(239,165,191)" fill-opacity="0.027451" transform="translate(0,0)"></path>
<path d="M 1367.64 1127.23 C 1372.47 1124.84 1376.9 1121.99 1381.59 1119.42 L 1383.39 1120.56 C 1383.61 1124.43 1384.73 1126.99 1381.66 1128.81 C 1379.73 1129.97 1380.45 1136.72 1380.37 1139.12 C 1373.74 1133.41 1378.6 1131.23 1369.1 1128.06 C 1368.48 1127.77 1368.14 1127.67 1367.64 1127.23 z" fill="rgb(225,197,211)" fill-opacity="0.741176" transform="translate(0,0)"></path>
<path d="M 1657.21 1068.05 L 1656.53 1067.31 C 1653.67 1064.2 1651.92 1063.7 1648.71 1061.27 C 1646.36 1059.48 1649.36 1056.43 1650.9 1055.83 C 1654.76 1054.34 1655.17 1059.28 1660.47 1059.67 C 1662.23 1061.05 1666.7 1066.16 1668.45 1068.04 L 1657.21 1068.05 z" fill="rgb(225,197,211)" fill-opacity="0.878431" transform="translate(0,0)"></path>
<path d="M 728.671 1733.52 C 730.02 1730.33 737.885 1715.59 742.058 1716.58 C 743.041 1716.82 743.885 1717.44 744.397 1718.32 C 748.808 1725.92 738.002 1722.23 736.795 1730.67 C 734.316 1731.87 731.477 1732.34 728.671 1733.52 z" fill="rgb(237,153,185)" fill-opacity="0.941176" transform="translate(0,0)"></path>
<path d="M 1407.19 876.23 C 1405.07 876.495 1403.67 877.844 1402.98 877.91 C 1398.08 878.37 1398.59 855.517 1407.66 869.974 L 1408.48 871.083 C 1408.14 872.85 1407.87 874.562 1407.19 876.23 z" fill="rgb(246,243,241)" fill-opacity="0.92549" transform="translate(0,0)"></path>
<path d="M 1532.86 1142.34 C 1529.51 1142.97 1521.83 1145.17 1519.18 1139.17 C 1517.85 1136.18 1532.32 1136.95 1534.64 1137.14 C 1534.58 1140.18 1535.46 1140.74 1532.86 1142.34 z" fill="rgb(225,194,210)" fill-opacity="0.376471" transform="translate(0,0)"></path>
<path d="M 1176.78 446.753 C 1175.79 438.577 1175.35 438.889 1184.47 440.279 C 1185.18 443.703 1185.71 447.108 1186.44 450.571 C 1183.07 449.322 1180.09 448.123 1176.78 446.753 z" fill="rgb(238,121,111)" fill-opacity="0.745098" transform="translate(0,0)"></path>
<path d="M 662.963 1739.86 C 670.685 1740.67 671.585 1740.86 665.952 1745.51 C 662.359 1748.49 662.617 1748.84 658.31 1750.82 C 657.244 1749.79 656.234 1748.8 655.129 1747.81 C 657.951 1744.98 659.917 1742.63 662.963 1739.86 z" fill="rgb(239,165,191)" fill-opacity="0.262745" transform="translate(0,0)"></path>
<path d="M 1040.88 1279.2 L 1040.22 1281.09 C 1038.19 1286.99 1038.51 1286.19 1034.65 1291.25 C 1023.6 1282.17 1032.5 1281.49 1040.88 1279.2 z" fill="rgb(233,232,224)" fill-opacity="0.172549" transform="translate(0,0)"></path>
<path d="M 1360.86 1659.38 L 1361.67 1659.25 L 1362.03 1661.5 C 1359.34 1667.5 1358.25 1666.11 1362.15 1670.85 C 1357.84 1672.36 1353.5 1673.69 1349.11 1674.94 C 1352.83 1670.06 1356.97 1663.9 1360.86 1659.38 z" fill="rgb(237,153,185)" transform="translate(0,0)"></path>
<path d="M 1626.98 1297.32 C 1628.92 1293.83 1631.97 1291.22 1634.95 1288.56 C 1636.73 1289.37 1638.5 1290.2 1640.27 1291.06 C 1637.11 1294.55 1634.03 1297.27 1630.75 1301.05 C 1629.3 1298.78 1629.25 1298.91 1626.98 1297.32 z" fill="rgb(253,253,252)" fill-opacity="0.541176" transform="translate(0,0)"></path>
<path d="M 1307.4 1324.04 C 1311.72 1328.72 1317.27 1332.72 1308.05 1336.87 C 1306.68 1335.04 1305.29 1333.23 1303.88 1331.43 C 1305.22 1328.94 1306.27 1326.62 1307.4 1324.04 z" fill="rgb(233,232,224)" fill-opacity="0.0823529" transform="translate(0,0)"></path>
<path d="M 355.352 1022.25 C 358.424 1018.57 361.471 1014.46 364.544 1010.96 C 364.164 1014.82 362.799 1017.3 364.176 1020.68 C 363.758 1021.38 357.558 1027.5 356.841 1027.59 C 356.191 1027.32 355.605 1023.16 355.352 1022.25 z" fill="rgb(253,253,252)" fill-opacity="0.309804" transform="translate(0,0)"></path>
<path d="M 341.048 1042.87 C 349.769 1042.46 346.047 1033.89 352.531 1034.5 C 349.88 1037.89 352.377 1041.22 343.88 1048.97 C 343.775 1044.06 343.243 1045.57 338.708 1046.7 C 339.571 1045.18 340.075 1044.38 341.048 1042.87 z" fill="rgb(253,253,252)" fill-opacity="0.631373" transform="translate(0,0)"></path>
<path d="M 971.891 344.133 C 974.863 341.695 979.821 339.242 983.467 338.113 C 984.625 338.593 986.201 339 987.447 339.361 C 984.341 341.139 980.987 341.454 984.824 343.714 C 981.582 345.042 981.395 344.302 977.36 346.386 C 974.613 345.467 974.41 345.457 971.891 344.133 z" fill="rgb(246,243,241)" fill-opacity="0.945098" transform="translate(0,0)"></path>
<path d="M 1362.03 1661.5 L 1363.15 1660.77 C 1371.03 1654.21 1365.76 1668.28 1365.15 1669.94 C 1363.88 1670.26 1363.38 1670.42 1362.15 1670.85 C 1358.25 1666.11 1359.34 1667.5 1362.03 1661.5 z" fill="rgb(239,165,191)" fill-opacity="0.588235" transform="translate(0,0)"></path>
<path d="M 1382.5 1414.97 C 1382.19 1411.17 1387.86 1412.39 1390.28 1414.23 C 1389.93 1428.1 1387.7 1423.67 1382.5 1414.97 z" fill="rgb(239,165,191)" fill-opacity="0.470588" transform="translate(0,0)"></path>
<path d="M 645.478 390.544 C 641.617 386.532 639.837 385.171 645.534 377.755 C 646.581 376.392 647.57 385.361 647.692 385.948 C 646.788 388.175 646.645 388.53 645.478 390.544 z" fill="rgb(246,243,241)" fill-opacity="0.784314" transform="translate(0,0)"></path>
<path d="M 483.668 1139.25 C 479.45 1137.15 473.774 1129.51 478.348 1126.99 C 482.093 1124.93 482.169 1135.1 483.931 1137.77 L 483.668 1139.25 z" fill="rgb(237,153,185)" fill-opacity="0.447059" transform="translate(0,0)"></path>
<path d="M 338.708 1046.7 C 343.243 1045.57 343.775 1044.06 343.88 1048.97 C 342.311 1053.56 342.797 1054.13 338.608 1055.91 L 336.405 1051.3 C 337.165 1049.76 337.933 1048.23 338.708 1046.7 z" fill="rgb(253,253,252)" fill-opacity="0.333333" transform="translate(0,0)"></path>
<path d="M 655.129 1747.81 C 656.234 1748.8 657.244 1749.79 658.31 1750.82 C 656.806 1751.79 656.339 1751.74 657.067 1753.46 C 653.651 1754.58 648.846 1755.12 645.273 1755.6 C 648.049 1753.19 652.038 1749.7 655.129 1747.81 z" fill="rgb(239,165,191)" fill-opacity="0.988235" transform="translate(0,0)"></path>
<path d="M 527.261 880.759 C 527.5 880.377 528.315 879.224 528.625 878.956 C 530.673 881.632 533.91 893.619 527.362 894.745 C 527.381 890 527.418 885.515 527.261 880.759 z" fill="rgb(246,243,241)" fill-opacity="0.603922" transform="translate(0,0)"></path>
<path d="M 1634.95 1288.56 C 1638.53 1286.12 1640.61 1284.72 1644.73 1282.99 L 1645.33 1287.96 C 1643.6 1288.95 1642.12 1290.29 1640.27 1291.06 C 1638.5 1290.2 1636.73 1289.37 1634.95 1288.56 z" fill="rgb(253,253,252)" fill-opacity="0.913725" transform="translate(0,0)"></path>
<path d="M 1621.33 1310.29 C 1622.26 1311.1 1623.2 1311.89 1624.14 1312.67 C 1623.34 1317.2 1623.37 1322.31 1621.26 1326.07 C 1620.04 1320.8 1619.78 1317.9 1620.89 1312.5 L 1621.33 1310.29 z" fill="rgb(246,243,241)" fill-opacity="0.831373" transform="translate(0,0)"></path>
<path d="M 1626.98 1297.32 C 1629.25 1298.91 1629.3 1298.78 1630.75 1301.05 C 1629.2 1303.35 1628.21 1304.91 1626.87 1307.34 L 1623.28 1304.69 C 1624.58 1302.81 1625.96 1299.51 1626.98 1297.32 z" fill="rgb(253,253,252)" fill-opacity="0.117647" transform="translate(0,0)"></path>
<path d="M 1472.26 1589.06 C 1475.01 1587.52 1477.81 1586.07 1480.66 1584.72 L 1480.98 1586.31 C 1482.79 1594.82 1476.35 1591.77 1472.26 1589.06 z" fill="rgb(248,182,106)" fill-opacity="0.839216" transform="translate(0,0)"></path>
<path d="M 689.671 1493.23 C 692.46 1490.37 690.667 1490.29 692.615 1487.2 C 693.471 1489.9 694.072 1492.26 694.724 1495.02 L 696.525 1502.82 L 690.758 1495.14 C 690.112 1494.28 690.099 1494.2 689.671 1493.23 z" fill="rgb(241,185,123)" transform="translate(0,0)"></path>
<path d="M 1355.54 1369.93 C 1357.29 1370.04 1357.28 1369.99 1358.9 1370.44 C 1358.18 1373.15 1358.34 1373.07 1358.8 1375.79 C 1358.61 1375.83 1358.42 1375.86 1358.24 1375.89 C 1354.71 1372.61 1349.31 1374.88 1348.42 1374.05 L 1348.41 1373.84 C 1348.73 1373.33 1353.79 1371.28 1355.54 1369.93 z" fill="rgb(237,153,185)" fill-opacity="0.776471" transform="translate(0,0)"></path>
<path d="M 1644.73 1282.99 C 1646.07 1282.23 1647.41 1281.47 1648.75 1280.7 C 1654.98 1285.22 1652.68 1284.24 1645.33 1287.96 L 1644.73 1282.99 z" fill="rgb(246,243,241)" fill-opacity="0.454902" transform="translate(0,0)"></path>
<path d="M 1570.59 1518.41 L 1572.12 1520.18 C 1561.69 1532.14 1561.7 1528.59 1570.59 1518.41 z" fill="rgb(248,182,106)" fill-opacity="0.0980392" transform="translate(0,0)"></path>
<path d="M 864.376 457.446 C 865.5 458.164 866.82 459.066 867.981 459.683 C 867.965 461.116 867.224 467.849 865.67 467.63 C 864.178 466.204 864.461 459.535 864.376 457.446 z" fill="rgb(233,232,224)" fill-opacity="0.67451" transform="translate(0,0)"></path>
<path d="M 686.916 322.016 C 688.096 321.489 689.122 321.012 690.342 320.565 C 693.041 322.987 695.784 322.191 694.245 325.108 C 690.898 326.912 688.809 324.405 686.916 322.016 z" fill="rgb(246,243,241)" fill-opacity="0.756863" transform="translate(0,0)"></path>
<path d="M 1579.78 1507.23 C 1577.4 1512.15 1575.7 1515.94 1572.12 1520.18 L 1570.59 1518.41 C 1572.67 1514.48 1576.7 1510.64 1579.78 1507.23 z" fill="rgb(190,139,120)" fill-opacity="0.988235" transform="translate(0,0)"></path>
<path d="M 1623.28 1304.69 L 1626.87 1307.34 C 1625.95 1309.41 1625.19 1310.71 1624.14 1312.67 C 1623.2 1311.89 1622.26 1311.1 1621.33 1310.29 L 1623.28 1304.69 z" fill="rgb(253,253,252)" fill-opacity="0.254902" transform="translate(0,0)"></path>
<path d="M 715.095 1562.79 C 712.911 1560.24 715.491 1547.29 717.715 1557.84 C 716.806 1559.8 716.162 1560.94 715.095 1562.79 z" fill="rgb(239,165,191)" transform="translate(0,0)"></path>
<path d="M 987.447 339.361 L 989.208 339.59 C 997.347 340.52 985.701 343.466 984.824 343.714 C 980.987 341.454 984.341 341.139 987.447 339.361 z" fill="rgb(246,243,241)" fill-opacity="0.513725" transform="translate(0,0)"></path>
<path d="M 830.068 415.104 C 828.935 415.696 827.539 415.374 826.78 414.345 C 826.021 413.316 826.126 411.888 827.026 410.98 C 827.927 410.073 829.355 409.957 830.389 410.708 C 831.424 411.459 831.757 412.853 831.173 413.99 C 830.929 414.466 830.542 414.856 830.068 415.104 z" fill="rgb(246,243,241)" fill-opacity="0.643137" transform="translate(0,0)"></path>
<path d="M 839.651 400.988 C 841.029 397.744 841.827 395.292 845.708 395.039 L 847.162 394.919 C 844.69 398.296 843.362 398.798 839.651 400.988 z" fill="rgb(233,232,224)" fill-opacity="0.501961" transform="translate(0,0)"></path>
<path d="M 534.959 1459.45 C 533.939 1459.39 527.169 1459.52 526.841 1458.43 C 527.317 1457.11 530.451 1455.72 531.66 1455.07 L 534.959 1459.45 z" fill="rgb(241,185,123)" transform="translate(0,0)"></path>
<path d="M 1331.83 1200.17 C 1331.63 1198.98 1329.96 1189.23 1332 1189.7 C 1332.61 1190.73 1332.47 1190.44 1332.72 1191.68 L 1331.83 1200.17 z" fill="rgb(225,194,210)" fill-opacity="0.117647" transform="translate(0,0)"></path>
<path d="M 580.731 1032.33 C 577.699 1027.93 576.843 1024.61 581.753 1030.12 L 580.731 1032.33 z" fill="rgb(115,129,205)" transform="translate(0,0)"></path>
<path d="M 1701.11 1585.73 C 1718.62 1587.94 1700.79 1605.96 1695.9 1611.49 C 1610.46 1708.03 1494.74 1735.51 1370.13 1723.69 L 1365.76 1722.42 C 1363.13 1719.78 1363.23 1720.02 1362.41 1716.4 C 1362.94 1714.37 1362.63 1714 1363.92 1712.8 C 1365.15 1711.65 1367.17 1710.9 1368.88 1710.99 C 1386.7 1711.94 1403.51 1714.05 1421.45 1714.13 C 1502.85 1714.5 1585.82 1692.04 1648.81 1638.84 C 1659.24 1630.03 1669.39 1620.53 1678.74 1610.6 C 1686.05 1602.85 1692.75 1593.86 1700.31 1586.49 L 1701.11 1585.73 z" fill="rgb(18,31,110)" transform="translate(0,0)"></path>
<path d="M 1425.68 1664.6 C 1424.64 1664.73 1415.42 1665.87 1415.35 1664.17 C 1415.8 1663.31 1419.89 1660.91 1421.63 1661.97 L 1425.68 1664.6 z" fill="rgb(225,194,210)" fill-opacity="0.988235" transform="translate(0,0)"></path>
<metadata><recraft-signature>{"signed_by": "recraft", "signature_b64": "bTFkhUxupCCDcALTtajLwln4enbIpKS7j1BezoDQWeWu2qMvX2uDpi5rzngn3N56dK2CePMq9p/s60ODPkJMBw==", "signing_algo": "Ed25519", "generation_timestamp": 1773285085, "identifier": "43632f34-96c8-4e08-ad46-8d44d011a2ea"}</recraft-signature></metadata></svg>